<svg width="171" height="31" viewBox="0 0 171 31" fill="none" xmlns="http://www.w3.org/2000/svg">
<path d="M6.24874 29.0749C6.09259 29.1516 5.8598 29.2398 5.55034 29.3336C5.24088 29.4274 4.85192 29.4728 4.38632 29.4728C3.98033 29.4728 3.61978 29.4131 3.316 29.2739C3.01506 29.1346 2.7567 28.9469 2.54945 28.6968C2.35072 28.4552 2.19457 28.1539 2.09237 27.8071C1.99868 27.4631 1.94473 27.0822 1.94473 26.6586C1.94473 26.2266 1.99583 25.84 2.11791 25.4846C2.22863 25.1407 2.40182 24.8365 2.61759 24.5949C2.83335 24.3533 3.10023 24.1628 3.40117 24.0349C3.71063 23.9042 4.05699 23.8445 4.4431 23.8445C4.6248 23.8445 4.80367 23.8615 4.98537 23.8871C5.16707 23.9212 5.32889 23.9553 5.47652 24.0093C5.63267 24.052 5.76043 24.1031 5.88251 24.1486C6.00459 24.1998 6.09827 24.2424 6.15789 24.2794L6.45032 23.4692C6.40773 23.4437 6.32824 23.401 6.21751 23.347C6.10679 23.2958 5.96767 23.2447 5.78597 23.1821C5.60427 23.131 5.39702 23.0883 5.14718 23.0429C4.90586 23.0002 4.639 22.9832 4.33806 22.9832C3.86393 22.9832 3.41536 23.0599 2.99234 23.2248C2.56932 23.3896 2.20024 23.6227 1.88795 23.9326C1.56997 24.251 1.32014 24.6319 1.12992 25.0895C0.948221 25.5472 0.854523 26.0731 0.854523 26.6615C0.854523 27.2471 0.939696 27.7758 1.10436 28.2335C1.26903 28.6911 1.50184 29.0806 1.80278 29.3904C2.10372 29.7002 2.46712 29.9333 2.89014 30.0982C3.30465 30.2631 3.77025 30.3484 4.28696 30.3484C4.57938 30.3484 4.85477 30.3313 5.10461 30.2972C5.35444 30.2631 5.57872 30.2204 5.76894 30.175C5.95915 30.1238 6.11248 30.0726 6.24307 30.0186C6.37367 29.976 6.45883 29.9333 6.50142 29.8964L6.24874 29.0749Z" fill="#A8A8AB"/>
<path d="M13.7286 23.1481C13.4532 23.6996 13.1523 24.2624 12.8229 24.8395C12.4879 25.408 12.1501 25.9623 11.8066 26.4882C11.463 25.9623 11.1167 25.408 10.7902 24.8395C10.4637 24.2624 10.1599 23.6996 9.89304 23.1481H8.69495C9.07538 23.8218 9.47853 24.5126 9.91007 25.2204C10.3331 25.9282 10.7902 26.636 11.2728 27.3609V30.1921H12.2977V27.341C12.7718 26.6246 13.2204 25.9168 13.6519 25.209C14.0835 24.5097 14.4866 23.819 14.8585 23.1453H13.7286V23.1481Z" fill="#A8A8AB"/>
<path d="M22.462 27.0056C22.2037 26.7469 21.8687 26.5479 21.4371 26.4285C21.7551 26.3091 22.005 26.1272 22.1952 25.877C22.3854 25.6269 22.4791 25.3085 22.4791 24.9276C22.4791 24.5836 22.4024 24.288 22.2463 24.0464C22.0901 23.8133 21.8857 23.6228 21.6075 23.4779C21.3406 23.33 21.0198 23.2277 20.6507 23.168C20.2873 23.1083 19.8927 23.0742 19.4697 23.0742C19.322 23.0742 19.1687 23.0827 18.9955 23.0913C18.8224 23.0913 18.6605 23.0998 18.4874 23.1169C18.3142 23.1339 18.1438 23.151 17.9792 23.168C17.806 23.1851 17.6527 23.2107 17.5135 23.2448V30.0813C17.6498 30.1154 17.806 30.1409 17.9792 30.158C18.1438 30.1836 18.3142 30.2006 18.4874 30.2092C18.6605 30.2262 18.8309 30.2347 19.0041 30.2433C19.1687 30.2518 19.3306 30.2518 19.4782 30.2518C20.6422 30.2518 21.4939 30.0699 22.0305 29.7174C22.5642 29.3649 22.8396 28.8277 22.8396 28.1284C22.8425 27.6423 22.7119 27.2728 22.462 27.0056ZM18.5243 23.9327C18.6463 23.9242 18.7741 23.9156 18.9217 23.9071C19.0694 23.8986 19.2766 23.8986 19.535 23.8986C19.7933 23.8986 20.0432 23.9156 20.276 23.9583C20.5088 24.0009 20.7075 24.0606 20.8807 24.1487C21.0539 24.2255 21.1901 24.3392 21.2867 24.4756C21.3832 24.6234 21.4343 24.7855 21.4343 24.993C21.4343 25.209 21.3832 25.3909 21.2867 25.5274C21.193 25.6752 21.0624 25.7861 20.8977 25.8714C20.7331 25.9652 20.5428 26.0277 20.3214 26.0618C20.0886 26.0959 19.8558 26.1044 19.606 26.1044H18.5271V23.9327H18.5243ZM21.599 28.7736C21.4797 28.947 21.3151 29.075 21.1078 29.1716C20.9091 29.2654 20.6678 29.3365 20.4009 29.3706C20.134 29.4047 19.8416 29.4303 19.5378 29.4303C19.3817 29.4303 19.2369 29.4218 19.1148 29.4218C18.9927 29.4218 18.882 29.4132 18.7968 29.4047C18.6946 29.3962 18.5981 29.3962 18.5214 29.3877V26.9032H19.8387C20.1312 26.9032 20.398 26.9288 20.6308 26.9714C20.8722 27.0056 21.0794 27.0738 21.2526 27.1704C21.4258 27.2642 21.5535 27.395 21.6501 27.5513C21.7352 27.7162 21.7807 27.9038 21.7807 28.1369C21.7807 28.3927 21.721 28.6088 21.599 28.7736Z" fill="#A8A8AB"/>
<path d="M26.9801 29.3421V26.9004H30.0321V26.0817H26.9801V23.9838H30.4097V23.1453H25.9609V30.1864H30.6766V29.3393H26.9801V29.3421Z" fill="#A8A8AB"/>
<path d="M38.7184 29.3421C38.5367 29.0493 38.355 28.7736 38.1761 28.5064C37.9973 28.2392 37.8156 27.9975 37.6424 27.773C37.4692 27.5569 37.3329 27.375 37.2194 27.2386C37.7105 27.0737 38.0909 26.8321 38.3493 26.4966C38.6077 26.1697 38.7297 25.7718 38.7297 25.2971C38.7297 24.5637 38.4629 24.0037 37.9291 23.6313C37.3954 23.2589 36.6118 23.0713 35.5926 23.0713C35.2916 23.0713 34.9708 23.0883 34.6188 23.1054C34.2639 23.131 33.9374 23.1821 33.6535 23.2447V30.192H34.6699V27.4404H35.8765C35.9702 27.4404 36.0667 27.4319 36.1519 27.4233C36.291 27.5882 36.4358 27.7673 36.6004 27.9748C36.7651 28.1823 36.9355 28.4154 37.1001 28.6485C37.2733 28.8901 37.4351 29.1488 37.5998 29.4075C37.7644 29.6747 37.9178 29.9334 38.0569 30.192H39.1783C39.0449 29.922 38.8916 29.6377 38.7184 29.3421ZM37.0547 26.3744C36.856 26.4682 36.6231 26.5393 36.3392 26.5734C36.0639 26.599 35.7459 26.616 35.391 26.616H34.667V23.9667C34.8999 23.9497 35.2348 23.9326 35.6664 23.9326C35.9418 23.9326 36.2001 23.9582 36.4415 24.0008C36.6828 24.0349 36.89 24.1032 37.0717 24.2083C37.2534 24.3107 37.3897 24.45 37.5033 24.6319C37.6055 24.8053 37.6594 25.0298 37.6594 25.2885C37.6594 25.5728 37.6083 25.8059 37.5033 25.9793C37.3897 26.1498 37.2449 26.2806 37.0547 26.3744Z" fill="#A8A8AB"/>
<path d="M46.1569 27.574C46.0547 27.3324 45.9071 27.1334 45.7083 26.9685C45.5181 26.7951 45.2853 26.6501 45.027 26.5279C44.7601 26.4085 44.4762 26.2863 44.1554 26.1555C43.9311 26.0788 43.7238 25.9992 43.5421 25.9139C43.3519 25.8371 43.1901 25.7405 43.051 25.6467C42.9119 25.5529 42.8011 25.4307 42.7245 25.3027C42.6478 25.1805 42.6109 25.0185 42.6109 24.828C42.6109 24.6546 42.645 24.5096 42.7245 24.3874C42.7926 24.2566 42.8977 24.1543 43.0169 24.0776C43.1475 24.0008 43.2923 23.9298 43.4655 23.8956C43.6301 23.853 43.809 23.8359 44.0077 23.8359C44.3967 23.8359 44.7317 23.8786 45.0241 23.9582C45.3165 24.0434 45.5323 24.1316 45.6799 24.2169L46.0064 23.4152C45.8333 23.3129 45.5749 23.2077 45.2143 23.1224C44.8509 23.0286 44.4478 22.9832 44.0077 22.9832C43.2497 22.9832 42.645 23.1566 42.2078 23.5005C41.7762 23.8445 41.5605 24.3277 41.5605 24.9417C41.5605 25.243 41.6116 25.4932 41.7081 25.7007C41.8103 25.9167 41.9494 26.0987 42.1311 26.2436C42.3043 26.4 42.5116 26.5279 42.7529 26.6416C42.9857 26.7525 43.244 26.8576 43.5024 26.9429C43.7352 27.0282 43.9595 27.1078 44.1667 27.1845C44.374 27.2698 44.5557 27.3665 44.7175 27.4773C44.8822 27.5882 45.0099 27.719 45.0979 27.8753C45.1916 28.0316 45.2456 28.2107 45.2456 28.4268C45.2456 29.1346 44.7118 29.4871 43.65 29.4871C43.1674 29.4871 42.7614 29.4274 42.4349 29.3222C42.1084 29.2113 41.8586 29.1147 41.7024 29.0294L41.393 29.8395C41.4696 29.8822 41.5832 29.9248 41.7109 29.9874C41.8501 30.0471 42.0119 30.0982 42.2021 30.1522C42.3923 30.2034 42.6081 30.246 42.8494 30.283C43.0907 30.3171 43.3576 30.3427 43.65 30.3427C44.496 30.3427 45.149 30.1693 45.6146 29.8424C46.0803 29.507 46.313 29.0322 46.313 28.4182C46.313 28.0913 46.2619 27.8071 46.1569 27.574Z" fill="#A8A8AB"/>
<path d="M50.251 29.3421V26.9004H53.303V26.0817H50.251V23.9838H53.6806V23.1453H49.2232V30.1864H53.9389V29.3393H50.251V29.3421Z" fill="#A8A8AB"/>
<path d="M61.7156 29.0749C61.5595 29.1516 61.3267 29.2398 61.0257 29.3336C60.7163 29.4274 60.3273 29.4728 59.8532 29.4728C59.4472 29.4728 59.0952 29.4131 58.7857 29.2739C58.4848 29.1346 58.2264 28.9469 58.0277 28.6968C57.8204 28.4552 57.6643 28.1539 57.5706 27.8071C57.4684 27.4631 57.4145 27.0822 57.4145 26.6586C57.4145 26.2266 57.4741 25.84 57.5876 25.4846C57.6984 25.1407 57.8715 24.8365 58.0873 24.5949C58.3031 24.3533 58.5699 24.1628 58.8794 24.0349C59.1803 23.9042 59.5352 23.8445 59.9213 23.8445C60.103 23.8445 60.2819 23.8615 60.4551 23.8871C60.6368 23.9212 60.7986 23.9553 60.9547 24.0093C61.1024 24.052 61.2386 24.1031 61.3607 24.1486C61.4743 24.1998 61.568 24.2424 61.6276 24.2794L61.9285 23.4692C61.886 23.4437 61.8093 23.401 61.6958 23.347C61.585 23.2958 61.4374 23.2447 61.2557 23.1821C61.074 23.131 60.8667 23.0883 60.6254 23.0429C60.3841 23.0002 60.1087 22.9832 59.8078 22.9832C59.3337 22.9832 58.8851 23.0599 58.4621 23.2248C58.039 23.3896 57.67 23.6227 57.3577 23.9326C57.0397 24.251 56.7899 24.6319 56.6082 25.0895C56.4179 25.5472 56.3242 26.0731 56.3242 26.6615C56.3242 27.2471 56.4094 27.7758 56.5741 28.2335C56.7388 28.6911 56.9716 29.0806 57.2725 29.3904C57.5734 29.7002 57.9368 29.9333 58.3599 30.0982C58.7829 30.2631 59.2485 30.3484 59.7567 30.3484C60.0491 30.3484 60.3245 30.3313 60.5743 30.2972C60.8327 30.2631 61.0484 30.2204 61.2387 30.175C61.4289 30.1238 61.5822 30.0726 61.7128 30.0186C61.8434 29.976 61.9286 29.9333 61.9797 29.8964L61.7156 29.0749Z" fill="#A8A8AB"/>
<path d="M69.2918 23.1479V27.4545C69.2918 27.807 69.2492 28.1111 69.1612 28.3613C69.076 28.62 68.954 28.8275 68.8007 28.9924C68.653 29.1572 68.4656 29.2766 68.2499 29.3562C68.0426 29.433 67.8013 29.4671 67.543 29.4671C67.0262 29.4671 66.6032 29.3107 66.2853 28.9924C65.9588 28.674 65.7941 28.1651 65.7941 27.4573V23.1508H64.7777V27.5682C64.7777 27.9662 64.8288 28.3272 64.9424 28.6654C65.0531 29.0094 65.2178 29.2965 65.442 29.5467C65.6663 29.7968 65.9502 29.9873 66.3051 30.1322C66.6572 30.2715 67.0717 30.3483 67.5458 30.3483C68.0199 30.3483 68.4344 30.2715 68.7779 30.1322C69.1328 29.9844 69.4167 29.7968 69.6495 29.5467C69.8738 29.2965 70.0385 29.0122 70.1492 28.6654C70.2599 28.33 70.3139 27.9662 70.3139 27.5682V23.1508H69.2918V23.1479Z" fill="#A8A8AB"/>
<path d="M78.8181 29.3421C78.6364 29.0493 78.4575 28.7736 78.2758 28.5064C78.0941 28.2392 77.9152 27.9975 77.7421 27.773C77.5689 27.5569 77.4326 27.375 77.319 27.2386C77.8187 27.0737 78.1906 26.8321 78.449 26.4966C78.7073 26.1697 78.8379 25.7718 78.8379 25.2971C78.8379 24.5637 78.5711 24.0037 78.026 23.6313C77.4922 23.2589 76.7086 23.0713 75.6894 23.0713C75.397 23.0713 75.0677 23.0883 74.7156 23.1054C74.3607 23.131 74.0428 23.1821 73.7503 23.2447V30.192H74.7667V27.4404H75.9733C76.067 27.4404 76.1635 27.4319 76.2572 27.4233C76.3878 27.5882 76.5326 27.7673 76.7058 27.9748C76.8705 28.1823 77.0323 28.4154 77.197 28.6485C77.3701 28.8901 77.532 29.1488 77.6966 29.4075C77.8613 29.6747 78.0146 29.9334 78.1537 30.192H79.2752C79.1446 29.922 78.9969 29.6377 78.8181 29.3421ZM77.1544 26.3744C76.9556 26.4682 76.7228 26.5393 76.4474 26.5734C76.1635 26.599 75.8456 26.616 75.4992 26.616H74.7667V23.9667C74.9995 23.9497 75.3345 23.9326 75.7746 23.9326C76.0415 23.9326 76.2998 23.9582 76.5411 24.0008C76.7825 24.0349 76.9982 24.1032 77.1714 24.2083C77.3531 24.3107 77.4979 24.45 77.6029 24.6319C77.7051 24.8053 77.7591 25.0298 77.7591 25.2885C77.7591 25.5728 77.708 25.8059 77.6029 25.9793C77.4979 26.1498 77.3417 26.2806 77.1544 26.3744Z" fill="#A8A8AB"/>
<path d="M82.0478 23.1479V30.1891H83.0641V23.1479H82.0478Z" fill="#A8A8AB"/>
<path d="M85.8237 23.1479V24.0036H88.1148V30.1919H89.1397V24.0036H91.4308V23.1479H85.8237Z" fill="#A8A8AB"/>
<path d="M98.677 23.1481C98.4101 23.6996 98.1092 24.2624 97.7713 24.8395C97.4449 25.408 97.107 25.9623 96.7635 26.4882C96.42 25.9623 96.0736 25.408 95.7471 24.8395C95.4206 24.2624 95.1168 23.6996 94.85 23.1481H93.6519C94.0323 23.8218 94.4355 24.5126 94.8585 25.2204C95.29 25.9282 95.7471 26.636 96.2297 27.3609V30.1921H97.2461V27.341C97.7288 26.6246 98.1773 25.9168 98.6089 25.209C99.0319 24.5097 99.4379 23.819 99.8155 23.1453H98.677V23.1481Z" fill="#A8A8AB"/>
<path d="M107.597 29.3421V26.9004H110.649V26.0817H107.597V23.9838H111.027V23.1453H106.578V30.1864H111.294V29.3393H107.597V29.3421Z" fill="#A8A8AB"/>
<path d="M118.681 28.3501C118.258 27.719 117.809 27.0823 117.326 26.4256L119.62 23.1453H118.456L116.682 25.769L114.882 23.1453H113.701L116.038 26.4683C115.572 27.1164 115.123 27.7531 114.709 28.3671C114.294 28.9897 113.925 29.5923 113.604 30.1892H114.734C114.837 29.9817 114.967 29.7572 115.123 29.5155C115.271 29.2654 115.433 29.0067 115.606 28.7395C115.771 28.4723 115.949 28.2051 116.14 27.9379C116.33 27.6707 116.52 27.4206 116.69 27.1789C116.864 27.4206 117.043 27.6707 117.233 27.9379C117.423 28.2051 117.602 28.4723 117.784 28.7395C117.957 29.0067 118.119 29.2654 118.266 29.5155C118.414 29.7572 118.542 29.9817 118.644 30.1892H119.791C119.467 29.5838 119.095 28.9726 118.681 28.3501Z" fill="#A8A8AB"/>
<path d="M126.888 23.6398C126.337 23.2589 125.551 23.0713 124.526 23.0713C124.234 23.0713 123.904 23.0883 123.552 23.1054C123.197 23.131 122.879 23.1821 122.595 23.2447V30.192H123.612V27.5768H124.421C124.929 27.5768 125.395 27.5342 125.801 27.4546C126.207 27.3778 126.55 27.2471 126.834 27.0652C127.118 26.8832 127.334 26.6501 127.49 26.3573C127.638 26.0731 127.714 25.7263 127.714 25.3226C127.714 24.5722 127.439 24.0094 126.888 23.6398ZM126.482 26.0134C126.38 26.1953 126.224 26.3403 126.034 26.4455C125.843 26.5478 125.602 26.6274 125.327 26.67C125.043 26.7127 124.733 26.7297 124.378 26.7297H123.612V23.9667C123.845 23.9497 124.171 23.9326 124.611 23.9326C124.887 23.9326 125.145 23.9582 125.386 24.0008C125.636 24.0349 125.852 24.1117 126.034 24.2169C126.224 24.3192 126.369 24.4585 126.474 24.6404C126.587 24.8138 126.638 25.0384 126.638 25.3056C126.638 25.5898 126.584 25.8315 126.482 26.0134Z" fill="#A8A8AB"/>
<path d="M131.691 29.3421V26.9004H134.743V26.0817H131.691V23.9838H135.12V23.1453H130.672V30.1864H135.387V29.3393H131.691V29.3421Z" fill="#A8A8AB"/>
<path d="M143.429 29.3421C143.247 29.0493 143.068 28.7736 142.887 28.5064C142.705 28.2392 142.526 27.9975 142.353 27.773C142.18 27.5569 142.043 27.375 141.93 27.2386C142.421 27.0737 142.802 26.8321 143.06 26.4966C143.318 26.1697 143.44 25.7718 143.44 25.2971C143.44 24.5637 143.173 24.0037 142.64 23.6313C142.106 23.2589 141.322 23.0713 140.303 23.0713C140.002 23.0713 139.681 23.0883 139.329 23.1054C138.974 23.131 138.648 23.1821 138.364 23.2447V30.192H139.38V27.4404H140.587C140.684 27.4404 140.777 27.4319 140.862 27.4233C140.999 27.5882 141.146 27.7673 141.311 27.9748C141.476 28.1823 141.646 28.4154 141.811 28.6485C141.984 28.8901 142.146 29.1488 142.31 29.4075C142.475 29.6747 142.628 29.9334 142.767 30.192H143.889C143.755 29.922 143.599 29.6377 143.429 29.3421ZM141.765 26.3744C141.567 26.4682 141.334 26.5393 141.05 26.5734C140.774 26.599 140.456 26.616 140.102 26.616H139.378V23.9667C139.61 23.9497 139.945 23.9326 140.377 23.9326C140.652 23.9326 140.911 23.9582 141.152 24.0008C141.393 24.0349 141.609 24.1032 141.782 24.2083C141.964 24.3107 142.109 24.45 142.214 24.6319C142.316 24.8053 142.37 25.0298 142.37 25.2885C142.37 25.5728 142.319 25.8059 142.214 25.9793C142.109 26.1498 141.953 26.2806 141.765 26.3744Z" fill="#A8A8AB"/>
<path d="M145.918 23.1479V24.0036H148.212V30.1919H149.237V24.0036H151.531V23.1479H145.918Z" fill="#A8A8AB"/>
<path d="M154.288 23.1479V30.1891H155.304V23.1479H154.288Z" fill="#A8A8AB"/>
<path d="M163.005 27.574C162.903 27.3324 162.755 27.1334 162.556 26.9685C162.366 26.7951 162.133 26.6501 161.875 26.5279C161.617 26.4085 161.324 26.2863 161.003 26.1555C160.779 26.0788 160.58 25.9992 160.39 25.9139C160.2 25.8371 160.038 25.7405 159.899 25.6467C159.76 25.5529 159.649 25.4307 159.572 25.3027C159.496 25.1805 159.459 25.0185 159.459 24.828C159.459 24.6546 159.493 24.5096 159.572 24.3874C159.641 24.2566 159.746 24.1543 159.865 24.0776C159.995 24.0008 160.14 23.9298 160.313 23.8956C160.478 23.853 160.657 23.8359 160.856 23.8359C161.245 23.8359 161.58 23.8786 161.872 23.9582C162.165 24.0434 162.38 24.1316 162.528 24.2169L162.854 23.4152C162.69 23.3129 162.423 23.2077 162.062 23.1224C161.702 23.0286 161.296 22.9832 160.856 22.9832C160.098 22.9832 159.493 23.1566 159.061 23.5005C158.621 23.8445 158.406 24.3277 158.406 24.9417C158.406 25.243 158.457 25.4932 158.562 25.7007C158.655 25.9167 158.795 26.0987 158.976 26.2436C159.149 26.4 159.357 26.5279 159.598 26.6416C159.831 26.7525 160.089 26.8576 160.356 26.9429C160.58 27.0282 160.805 27.1078 161.012 27.1845C161.219 27.2698 161.401 27.3665 161.563 27.4773C161.727 27.5882 161.855 27.719 161.943 27.8753C162.045 28.0316 162.091 28.2107 162.091 28.4268C162.091 29.1346 161.557 29.4871 160.495 29.4871C160.013 29.4871 159.607 29.4274 159.28 29.3222C158.954 29.2113 158.704 29.1147 158.548 29.0294L158.238 29.8395C158.315 29.8822 158.428 29.9248 158.565 29.9874C158.695 30.0471 158.857 30.0982 159.047 30.1522C159.237 30.2034 159.453 30.246 159.695 30.283C159.936 30.3171 160.203 30.3427 160.495 30.3427C161.341 30.3427 161.994 30.1693 162.46 29.8424C162.925 29.507 163.167 29.0322 163.167 28.4182C163.167 28.0913 163.107 27.8071 163.005 27.574Z" fill="#A8A8AB"/>
<path d="M167.099 29.3421V26.9004H170.151V26.0817H167.099V23.9838H170.528V23.1453H166.08V30.1864H170.787V29.3393H167.099V29.3421Z" fill="#A8A8AB"/>
<path d="M17.669 0.938385C18.0182 0.938385 18.1942 1.10893 18.1942 1.44436V3.69857C18.1942 4.05105 18.021 4.22729 17.669 4.22729H7.07076C6.45184 4.22729 5.9408 4.2756 5.53482 4.37509C5.13167 4.47458 4.80803 4.64515 4.57239 4.88109C4.33391 5.11986 4.16356 5.43823 4.05852 5.8362C3.95631 6.23416 3.9052 6.743 3.9052 7.35416V10.6232C3.9052 11.2372 3.95631 11.7488 4.05852 12.1553C4.16356 12.5618 4.33391 12.883 4.57239 13.1218C4.81087 13.3606 5.13167 13.5283 5.53482 13.6278C5.9408 13.7273 6.45184 13.7785 7.07076 13.7785H17.669C18.0182 13.7785 18.1942 13.9462 18.1942 14.2844V16.5415C18.1942 16.8798 18.021 17.0475 17.669 17.0475H6.9288C5.7222 17.0475 4.6973 16.9394 3.85694 16.7262C3.01374 16.513 2.32952 16.1634 1.79578 15.6802C1.26488 15.1969 0.875929 14.5659 0.628931 13.7927C0.381933 13.0195 0.259857 12.0786 0.259857 10.9728V7.01304C0.259857 5.91011 0.384772 4.97205 0.628931 4.20454C0.87309 3.43704 1.26488 2.81167 1.79578 2.32843C2.32952 1.84518 3.01374 1.49269 3.85694 1.26812C4.6973 1.0464 5.7222 0.932695 6.9288 0.932695H17.669V0.938385Z" fill="white"/>
<path d="M22.9367 0.938869C23.1894 0.938869 23.3824 1.02982 23.5074 1.21459L29.8668 9.52356L36.2746 1.21459C36.4024 1.02982 36.5926 0.938869 36.8452 0.938869H39.9654C40.0903 0.938869 40.1783 0.990027 40.2266 1.08952C40.272 1.18901 40.2578 1.29419 40.1783 1.39937L31.6271 12.1274V16.5476C31.6271 16.8859 31.451 17.0536 31.1018 17.0536H28.5296C28.1634 17.0536 27.9817 16.8859 27.9817 16.5476V12.1274L19.527 1.39937C19.4475 1.29135 19.4276 1.18901 19.4674 1.08952C19.5071 0.990027 19.598 0.938869 19.7428 0.938869H22.9367Z" fill="white"/>
<path d="M56.5153 0.938878C58.1506 0.938878 59.3146 1.25441 60.0045 1.88263C60.6944 2.51084 61.0408 3.46311 61.0408 4.7366V5.84238C61.0408 7.13009 60.5297 8.10509 59.5162 8.76458C60.6121 9.37858 61.16 10.3678 61.16 11.7351V13.0711C61.16 13.6851 61.0862 14.2366 60.9471 14.7284C60.8023 15.2202 60.5695 15.638 60.243 15.982C59.9165 16.3288 59.4849 16.5931 58.9455 16.7751C58.4061 16.9598 57.7389 17.0508 56.944 17.0508H42.797C42.32 17.0508 42.0815 16.8205 42.0815 16.36V1.62678C42.0815 1.16628 42.32 0.936032 42.797 0.936032H56.5153V0.938878ZM45.724 7.63607H55.4904C56.2825 7.63607 56.8248 7.51951 57.1115 7.28926C57.3954 7.05901 57.5402 6.72074 57.5402 6.27729V5.49557C57.5402 5.02086 57.4011 4.67122 57.1229 4.4495C56.8446 4.22777 56.3961 4.11692 55.7771 4.11692H46.0363C45.8319 4.11692 45.7269 4.2164 45.7269 4.41539V7.63607H45.724ZM45.724 13.5771C45.724 13.7761 45.8291 13.8756 46.0335 13.8756H55.7999C56.433 13.8756 56.8872 13.7647 57.1569 13.5402C57.4266 13.3185 57.5601 12.9603 57.5601 12.4685V11.593C57.5601 11.1183 57.4124 10.7573 57.12 10.5099C56.8248 10.2655 56.2825 10.1433 55.4904 10.1433H45.724V13.5771Z" fill="white"/>
<path d="M80.9261 0.938854C81.2924 0.938854 81.4741 1.1094 81.4741 1.44483V3.6308C81.4741 3.96907 81.2924 4.13679 80.9261 4.13679H70.5181C69.8992 4.13679 69.3882 4.18512 68.9822 4.28461C68.5762 4.38411 68.2497 4.55465 68.0056 4.79059C67.7586 5.02937 67.5882 5.35059 67.4946 5.75709C67.398 6.16358 67.3498 6.66672 67.3498 7.26367V7.49392H80.8069C81.1561 7.49392 81.3321 7.66446 81.3321 7.99989V9.81917C81.3321 10.1574 81.1561 10.3252 80.8069 10.3252H67.3498V10.7146C67.3498 11.3116 67.398 11.8175 67.4946 12.2212C67.5911 12.6277 67.7614 12.9517 68.0056 13.1877C68.2526 13.4264 68.5762 13.5942 68.9822 13.6937C69.3882 13.7931 69.8992 13.8443 70.5181 13.8443H80.9261C81.2924 13.8443 81.4741 14.012 81.4741 14.3503V16.5363C81.4741 16.8745 81.2924 17.0422 80.9261 17.0422H70.4472C69.2406 17.0422 68.2157 16.9342 67.3753 16.721C66.5321 16.5078 65.8479 16.1582 65.3142 15.6749C64.7832 15.1917 64.3943 14.5607 64.1473 13.7875C63.9003 13.0143 63.7782 12.0734 63.7782 10.9676V7.00782C63.7782 5.90489 63.9031 4.96683 64.1473 4.19932C64.3943 3.43182 64.7832 2.80645 65.3142 2.32321C65.8479 1.83996 66.5321 1.48748 67.3753 1.26292C68.2157 1.04119 69.2406 0.92749 70.4472 0.92749H80.9261V0.938854Z" fill="white"/>
<path d="M97.7194 0.938823C99.5449 0.938823 100.854 1.33964 101.649 2.13557C102.444 2.93434 102.841 4.11402 102.841 5.6803V6.99073C102.841 8.31255 102.563 9.35295 102.006 10.1205C101.45 10.888 100.547 11.3797 99.2923 11.5929L103.363 16.4737C103.443 16.5504 103.466 16.6641 103.437 16.8176C103.403 16.9711 103.278 17.0479 103.054 17.0479H99.9821C99.7749 17.0479 99.6329 17.0252 99.5534 16.9797C99.474 16.9342 99.3944 16.8574 99.315 16.7494L95.5504 11.9625H87.8565V16.5419C87.8565 16.8802 87.6833 17.0479 87.3313 17.0479H84.7591C84.3957 17.0479 84.2112 16.8802 84.2112 16.5419V1.62388C84.2112 1.16338 84.4496 0.933132 84.9266 0.933132H97.7194V0.938823ZM87.8565 9.1568H96.9784C97.7904 9.1568 98.361 8.9891 98.6932 8.65083C99.0282 8.31256 99.1929 7.79805 99.1929 7.10729V6.1408C99.1929 5.45004 99.0254 4.93553 98.6932 4.60011C98.361 4.26184 97.7876 4.09411 96.9784 4.09411H88.166C87.9616 4.09411 87.8565 4.18509 87.8565 4.36986V9.1568Z" fill="white"/>
<path d="M123.61 0.938869C123.973 0.938869 124.158 1.10942 124.158 1.44484V3.69905C124.158 4.05153 123.976 4.22777 123.61 4.22777H116.132V16.542C116.132 16.8802 115.956 17.0479 115.607 17.0479H113.012C112.663 17.0479 112.487 16.8802 112.487 16.542V4.23062H105.008C104.642 4.23062 104.461 4.05436 104.461 3.70188V1.44769C104.461 1.10942 104.642 0.941715 105.008 0.941715H123.61V0.938869Z" fill="white"/>
<path d="M129.393 0.938869C129.742 0.938869 129.918 1.10942 129.918 1.44485V16.5448C129.918 16.8831 129.745 17.0508 129.393 17.0508H126.82C126.457 17.0508 126.272 16.8831 126.272 16.5448V1.44485C126.272 1.10657 126.454 0.938869 126.82 0.938869H129.393Z" fill="white"/>
<path d="M149.639 0.938878C149.988 0.938878 150.164 1.10943 150.164 1.44485V3.63082C150.164 3.96909 149.988 4.13681 149.639 4.13681H137.706C137.246 4.13681 136.92 4.25053 136.73 4.48078C136.54 4.71103 136.446 5.02654 136.446 5.42451V6.20623C136.446 7.06469 136.857 7.49678 137.684 7.49678H146.615C147.995 7.49678 149.037 7.83789 149.735 8.52012C150.434 9.20234 150.783 10.1802 150.783 11.4537V13.2957C150.783 14.4157 150.442 15.3225 149.761 16.0132C149.077 16.704 148.015 17.0479 146.57 17.0479H133.374C133.011 17.0479 132.826 16.8802 132.826 16.542V14.356C132.826 14.0177 133.008 13.85 133.374 13.85H145.88C146.34 13.85 146.666 13.7335 146.857 13.5032C147.047 13.273 147.141 12.9603 147.141 12.5595V11.6157C147.141 10.7573 146.729 10.328 145.903 10.328H136.971C135.591 10.328 134.549 9.98691 133.851 9.30468C133.153 8.62245 132.803 7.64459 132.803 6.36826V4.68828C132.803 3.56829 133.144 2.6615 133.825 1.97075C134.51 1.27999 135.571 0.936032 137.016 0.936032H149.639V0.938878Z" fill="white"/>
<path d="M170.452 0.938854C170.819 0.938854 171 1.1094 171 1.44483V3.6308C171 3.96907 170.819 4.13679 170.452 4.13679H160.045C159.426 4.13679 158.915 4.18512 158.509 4.28461C158.103 4.38411 157.776 4.55465 157.532 4.79059C157.285 5.02937 157.115 5.35059 157.021 5.75709C156.927 6.16358 156.876 6.66672 156.876 7.26367V7.49392H170.333C170.682 7.49392 170.858 7.66446 170.858 7.99989V9.81917C170.858 10.1574 170.682 10.3252 170.333 10.3252H156.876V10.7146C156.876 11.3116 156.924 11.8175 157.021 12.2212C157.117 12.6277 157.288 12.9517 157.532 13.1877C157.779 13.4264 158.103 13.5942 158.509 13.6937C158.915 13.7931 159.426 13.8443 160.045 13.8443H170.452C170.819 13.8443 171 14.012 171 14.3503V16.5363C171 16.8745 170.819 17.0422 170.452 17.0422H159.974C158.767 17.0422 157.742 16.9342 156.902 16.721C156.058 16.5078 155.374 16.1582 154.841 15.6749C154.31 15.1917 153.921 14.5607 153.674 13.7875C153.427 13.0143 153.305 12.0734 153.305 10.9676V7.00782C153.305 5.90489 153.43 4.96683 153.674 4.19932C153.918 3.43182 154.31 2.80645 154.841 2.32321C155.374 1.83996 156.058 1.48748 156.902 1.26292C157.742 1.04119 158.767 0.92749 159.974 0.92749H170.452V0.938854Z" fill="white"/>
</svg>
