<svg width="59" height="45" viewBox="0 0 59 45" fill="none" xmlns="http://www.w3.org/2000/svg">
<path d="M47.3953 20.12L29.5461 16.6662C28.9187 17.7066 27.6666 18.278 26.4004 18.0222C25.4067 17.8459 24.6232 17.2035 24.2314 16.3592C23.956 15.7992 23.8651 15.1426 23.9815 14.4774C24.3137 12.8372 25.9007 11.7457 27.5502 12.0754C28.8221 12.3341 29.7704 13.3148 29.9606 14.5457L46.7763 17.7749L42.2026 1.13704C42.2026 1.13704 42.055 1.0802 41.7682 0.98355C41.7569 0.98355 41.7342 0.983556 41.7228 0.972185C38.7077 0.37808 34.1567 0 29.0691 0C24.0326 0 19.527 0.366704 16.512 0.94944C16.5006 0.96081 16.4779 0.960804 16.4779 0.960804C16.1344 1.05745 15.9413 1.13704 15.9413 1.13704L14.8738 5.04848H14.8852L33.6996 8.51362H33.711C34.0432 7.95363 34.5684 7.51871 35.1731 7.28561C35.6927 7.08663 36.2747 7.02694 36.8567 7.14917C37.8503 7.34247 38.6481 8.01334 39.0427 8.88033C39.1506 9.11343 39.2301 9.34936 39.2756 9.60519C39.3437 9.97758 39.321 10.3073 39.2415 10.7024C39.196 10.9725 39.1166 11.2283 38.9973 11.4614C38.9519 11.5581 38.9065 11.649 38.8554 11.7428H38.8326C38.2052 12.7889 36.9873 13.3603 35.6926 13.0931C34.523 12.8941 33.6429 12.0186 33.3731 10.927C33.3391 10.8474 33.3164 10.7621 33.305 10.6825L14.3032 7.14917L11.3222 17.9084L28.8448 21.1718H28.8732C29.1429 20.7141 29.5461 20.3304 30.0259 20.0859C30.6136 19.7647 31.3148 19.6396 32.0132 19.7874C33.2823 20.0376 34.2391 21.0325 34.4349 22.252C34.4974 22.6016 34.4747 22.9712 34.4122 23.3378C34.3327 23.7045 34.2249 24.0741 34.0062 24.3782H33.9835C33.3731 25.4129 32.1438 25.9957 30.8606 25.7399C29.6 25.5068 28.6631 24.5232 28.4729 23.3151L10.8764 20.0632L0 23.4317C0 23.4317 0.0113635 23.443 0.034076 23.443C0.29243 23.5852 2.20879 24.6142 5.36583 25.8223C6.45603 26.2345 7.67398 26.6694 9.03673 27.0844C10.0758 27.4056 11.2115 27.7297 12.384 28.0338C12.5203 28.068 12.6537 28.1021 12.7956 28.1305C12.7956 28.1305 12.807 28.1305 12.8127 28.1362C10.8651 29.8332 9.63293 32.3375 9.63293 35.129C9.63293 40.2457 13.7723 44.3902 18.8826 44.3902C23.4052 44.3902 27.167 41.144 27.9676 36.8488L30.5369 38.2388C31.8088 41.8233 35.2299 44.3902 39.25 44.3902C44.3603 44.3902 48.4996 40.2457 48.4996 35.129C48.4996 32.3347 47.2675 29.8304 45.3142 28.1362C45.3596 28.1248 45.3994 28.1134 45.4448 28.1021C45.547 28.0793 45.6606 28.0566 45.76 28.0338C46.9524 27.7297 48.0596 27.4056 49.0959 27.0844C50.4614 26.6665 51.6879 26.2316 52.7668 25.8223C55.9351 24.617 57.8487 23.588 58.1042 23.443H58.1099C58.1212 23.4317 58.1326 23.4317 58.1326 23.4317L47.3953 20.12ZM18.8797 41.9626C15.1123 41.9626 12.0632 38.8983 12.0632 35.1261C12.0632 32.3489 13.7127 29.964 16.089 28.8951C16.265 28.9293 16.4325 28.9634 16.6028 29.0032C16.9918 29.0657 17.375 29.1226 17.7612 29.2135C17.7839 29.2135 17.7952 29.2249 17.8179 29.2249H17.8293C17.9712 29.2476 18.1388 29.2817 18.275 29.3045C18.3091 29.3045 18.3432 29.3158 18.3772 29.3158H18.3943C18.3943 29.3158 18.61 29.3329 18.6498 29.3329C18.7861 29.3556 18.9876 29.3784 19.2204 29.4125C19.2999 29.4239 19.3851 29.4239 19.4788 29.4353C19.5696 29.4466 19.6662 29.458 19.7712 29.4694C20.075 29.5035 20.4157 29.5376 20.7989 29.566C20.9295 29.5887 21.0743 29.6115 21.2106 29.6229C21.5428 29.6683 21.9005 29.7025 22.2497 29.7366C22.5535 29.7764 22.8601 29.7991 23.1752 29.8105C24.7225 31.0612 25.7105 32.9715 25.7105 35.1205C25.7077 38.8983 22.6529 41.9626 18.8797 41.9626ZM30.006 34.6685L28.0016 33.6167C27.7915 32.2892 27.2947 31.0612 26.5736 29.9924C26.7099 29.9924 26.8461 29.9981 26.9853 29.9981C27.0988 29.9981 27.2067 30.0094 27.3118 30.0094C27.678 30.0208 28.0471 30.0208 28.4133 30.0208C28.6064 30.0208 28.7852 30.0208 28.9612 30.0094H29.1713C29.3701 30.0208 29.5887 30.0208 29.7988 30.0208C30.1196 30.0208 30.4546 30.0208 30.7924 30.0094C30.9571 30.0094 31.136 29.9981 31.3006 29.9981C31.3801 29.9924 31.4596 29.9867 31.5476 29.9924C30.6476 31.3426 30.094 32.943 30.006 34.6685ZM46.0751 35.1261C46.0751 38.8983 43.0203 41.9626 39.2472 41.9626C35.4797 41.9626 32.4306 38.8983 32.4306 35.1261C32.4306 32.9771 33.4186 31.0669 34.9602 29.8162C35.633 29.7877 36.2974 29.7138 36.9418 29.6172C37.0781 29.6058 37.2087 29.5944 37.3365 29.5717C37.4784 29.5603 37.6289 29.5546 37.7595 29.5433C38.1257 29.4978 38.438 29.4637 38.7077 29.4409C39.0456 29.3954 39.3011 29.3613 39.48 29.3386C39.5027 29.3386 39.5595 29.3215 39.5822 29.3215C39.69 29.3215 39.7355 29.3215 39.7355 29.3215H39.7582C39.7809 29.3215 39.8036 29.3215 39.8263 29.3102C39.9683 29.2988 40.1244 29.2533 40.3118 29.2306C40.3345 29.2306 40.3572 29.2192 40.3799 29.2192C40.7746 29.1282 41.1408 29.0714 41.5326 29.0089C41.7029 28.9691 41.8704 28.9293 42.0408 28.8951C44.4199 29.9583 46.0751 32.3432 46.0751 35.1261Z" fill="#BAFF00"/>
</svg>
