<svg width="5000" height="5000" viewBox="0 0 1059 1099" fill="none" xmlns="http://www.w3.org/2000/svg">
<g opacity="0.2">
<path opacity="0.0909" d="M799.746 522.062C802.603 520.406 806.196 519.517 809.805 519.562C811.383 519.577 812.887 519.788 814.27 520.15C815.533 520.466 817.006 521.098 818.028 521.686L850.322 541.429C850.352 541.444 851.435 542.107 851.45 542.137C854.411 543.914 855.764 546.7 855.599 549.712C855.434 552.785 853.194 555.962 849.871 557.89L805.324 583.733C805.264 583.778 801.791 585.766 801.716 585.796C798.935 587.362 795.462 588.221 791.959 588.206C788.907 588.191 786.14 587.528 783.945 586.263L750.704 565.947C750.689 565.932 750.283 565.691 750.268 565.676C747.232 563.899 745.878 561.083 746.059 558.056C746.239 554.983 748.434 551.821 751.757 549.908L799.746 522.062Z" fill="black"/>
<path opacity="0.1818" d="M798.378 523.342C801.219 521.701 804.828 520.843 808.376 520.903C809.954 520.933 811.428 521.189 812.796 521.55C813.939 521.852 815.577 522.605 816.509 523.132L848.623 542.755C848.698 542.8 849.69 543.417 849.75 543.463C852.652 545.27 853.614 548.041 853.283 550.993C852.983 553.749 850.562 556.956 847.57 558.688L804.753 583.612C804.617 583.688 801.415 585.525 801.265 585.57C798.558 587.046 795.221 587.844 791.868 587.829C788.936 587.814 786.26 587.167 784.155 585.947L750.869 565.601C750.839 565.586 750.464 565.345 750.433 565.33C747.412 563.522 746.434 560.706 746.78 557.724C747.096 554.968 749.441 551.806 752.433 550.074L798.378 523.342Z" fill="black"/>
<path opacity="0.2727" d="M797.01 524.607C799.836 522.966 803.445 522.138 806.963 522.243C808.526 522.288 810 522.574 811.338 522.951C812.345 523.237 814.179 524.11 815.006 524.577L846.924 544.08C847.029 544.14 847.961 544.712 848.037 544.788C850.878 546.625 851.449 549.336 850.968 552.273C850.562 554.697 847.931 557.95 845.27 559.486L804.181 583.507C803.986 583.627 801.039 585.299 800.814 585.374C798.183 586.76 794.98 587.498 791.763 587.468C788.952 587.438 786.381 586.82 784.366 585.645L751.05 565.284C751.005 565.254 750.659 565.043 750.614 565.013C747.592 563.176 746.48 560.254 747.532 557.408C747.532 554.953 750.479 551.791 753.125 550.254L797.01 524.607Z" fill="black"/>
<path opacity="0.3636" d="M795.641 525.888C798.453 524.261 802.076 523.448 805.549 523.598C807.113 523.659 808.556 523.99 809.879 524.382C810.751 524.638 812.765 525.632 813.487 526.053L845.21 545.45C845.36 545.526 846.202 546.068 846.307 546.158C849.073 548.026 849.915 550.872 848.622 553.598C848.622 555.751 845.27 558.989 842.939 560.345L803.564 583.447C803.294 583.597 800.633 585.103 800.317 585.209C797.776 586.504 794.694 587.197 791.627 587.151C788.936 587.106 786.47 586.504 784.531 585.389L751.17 564.998C751.11 564.968 750.779 564.757 750.734 564.727C747.712 562.86 746.81 559.893 748.208 557.122C748.208 554.968 751.44 551.806 753.756 550.465L795.641 525.888Z" fill="black"/>
<path opacity="0.4545" d="M794.274 527.168C797.07 525.541 800.694 524.773 804.121 524.939C805.67 525.029 807.113 525.391 808.406 525.782C809.158 526.008 811.353 527.137 811.969 527.499L843.496 546.776C843.677 546.881 844.459 547.378 844.594 547.499C847.3 549.396 847.901 552.273 846.293 554.893C846.293 556.745 842.624 560.013 840.625 561.158L802.979 583.356C802.648 583.552 800.243 584.892 799.852 585.028C797.386 586.233 794.439 586.865 791.508 586.805C788.937 586.76 786.576 586.173 784.712 585.103L751.321 564.682C751.246 564.637 750.945 564.456 750.885 564.411C747.863 562.528 747.186 559.501 748.93 556.821C748.93 554.968 752.433 551.806 754.433 550.661L794.274 527.168Z" fill="black"/>
<path opacity="0.5455" d="M792.905 528.433C795.687 526.821 799.325 526.068 802.708 526.279C804.256 526.385 805.669 526.776 806.947 527.198C807.564 527.394 809.939 528.659 810.45 528.96L841.797 548.116C842.007 548.237 842.714 548.688 842.879 548.839C845.51 550.752 845.901 553.658 843.962 556.188C843.962 557.724 839.978 561.023 838.309 561.971L802.377 583.251C801.971 583.477 799.836 584.667 799.37 584.817C796.995 585.932 794.153 586.504 791.387 586.444C788.936 586.384 786.666 585.826 784.907 584.802L751.471 564.366C751.38 564.321 751.11 564.14 751.035 564.095C748.028 562.182 747.547 559.11 749.636 556.505C749.636 554.968 753.425 551.791 755.094 550.842L792.905 528.433Z" fill="black"/>
<path opacity="0.6364" d="M791.537 529.713C794.319 528.101 797.942 527.378 801.28 527.619C802.813 527.74 804.211 528.177 805.474 528.598C805.97 528.764 808.511 530.165 808.932 530.406L840.083 549.441C840.339 549.592 840.97 549.999 841.151 550.164C843.722 552.107 843.872 555.029 841.617 557.453C841.617 558.688 837.317 562.001 835.979 562.769L801.776 583.13C801.31 583.402 799.43 584.411 798.889 584.591C796.589 585.615 793.883 586.127 791.252 586.052C788.921 585.977 786.756 585.45 785.073 584.471L751.591 564.004C751.486 563.944 751.245 563.793 751.155 563.733C748.148 561.791 747.878 558.673 750.313 556.143C750.313 554.908 754.387 551.746 755.71 550.977L791.537 529.713Z" fill="black"/>
<path opacity="0.7273" d="M790.169 530.978C792.935 529.381 796.574 528.674 799.866 528.96C801.4 529.095 802.768 529.562 804.016 530.014C804.392 530.149 807.113 531.686 807.413 531.866L838.399 550.782C838.685 550.947 839.241 551.324 839.467 551.504C841.962 553.477 841.902 556.414 839.316 558.748C839.316 559.667 834.701 563.01 833.693 563.583L801.219 583.04C800.678 583.356 799.084 584.2 798.468 584.41C796.243 585.344 793.672 585.796 791.176 585.706C788.951 585.63 786.907 585.118 785.298 584.185L751.786 563.703C751.681 563.643 751.456 563.492 751.35 563.432C748.344 561.459 748.283 558.297 751.08 555.842C751.08 554.923 755.44 551.745 756.432 551.173L790.169 530.978Z" fill="black"/>
<path opacity="0.8182" d="M788.801 532.258C791.552 530.662 795.206 529.999 798.453 530.315C799.972 530.466 801.325 530.978 802.573 531.43C802.813 531.52 805.715 533.207 805.925 533.327L836.686 552.137C837.001 552.318 837.497 552.649 837.738 552.86C840.173 554.863 839.873 557.815 836.971 560.059C836.971 560.676 832.04 564.034 831.378 564.426L800.618 582.965C800.017 583.311 798.679 584.004 797.987 584.23C795.852 585.073 793.402 585.48 791.056 585.374C788.951 585.284 787.012 584.802 785.494 583.914L751.937 563.402C751.817 563.327 751.606 563.206 751.501 563.131C748.494 561.143 748.644 557.92 751.787 555.556C751.787 554.938 756.432 551.761 757.094 551.369L788.801 532.258Z" fill="black"/>
<path opacity="0.9091" d="M787.448 533.538C790.184 531.957 793.837 531.309 797.039 531.655C798.558 531.821 799.896 532.363 801.114 532.83C801.234 532.875 804.316 534.713 804.421 534.773L835.001 553.462C835.362 553.673 835.768 553.959 836.039 554.2C838.414 556.233 837.888 559.2 834.655 561.354C834.655 561.655 829.408 565.043 829.078 565.239L800.046 582.874C799.37 583.266 798.302 583.778 797.536 584.049C795.476 584.802 793.161 585.148 790.951 585.028C788.966 584.923 787.132 584.471 785.689 583.642L752.087 563.116C751.952 563.04 751.771 562.92 751.651 562.845C748.659 560.827 749.02 557.574 752.508 555.269C752.508 554.968 757.424 551.776 757.755 551.58L787.448 533.538Z" fill="black"/>
<path d="M785.855 583.341L752.223 562.785C748.75 560.767 749.186 557.258 753.2 554.938L786.08 534.818C790.094 532.499 796.168 532.243 799.656 534.261L833.288 554.818C836.761 556.836 836.325 560.345 832.311 562.664L799.431 582.784C795.417 585.103 789.343 585.359 785.855 583.341Z" fill="black"/>
</g>
<g opacity="0.7">
<path d="M834.347 547.284H833.505C833.085 546.741 832.498 546.229 831.731 545.793L798.972 526.847C795.093 524.603 788.327 524.889 783.847 527.48L753.553 544.994C752.365 545.687 751.463 546.47 750.847 547.284H749.854V560.25H749.884C750.005 561.545 750.862 562.78 752.47 563.714L785.23 582.659C789.109 584.903 795.875 584.617 800.355 582.027L830.649 564.512C832.769 563.277 833.987 561.756 834.272 560.25H834.347V547.284Z" fill="#5B5B5B"/>
<path d="M785.356 570.109L785.355 570.109L752.596 551.163C750.716 550.076 749.945 548.621 750.125 547.165C750.307 545.691 751.474 544.121 753.678 542.846L783.972 525.332L783.847 525.115L783.972 525.332C786.172 524.06 788.942 523.349 791.645 523.236C794.351 523.122 796.961 523.608 798.846 524.699L798.846 524.699L831.606 543.645C833.486 544.732 834.256 546.187 834.077 547.643C833.895 549.117 832.728 550.687 830.524 551.962L800.23 569.476C798.03 570.748 795.256 571.459 792.551 571.572C789.843 571.686 787.234 571.2 785.356 570.109Z" fill="#5B5B5B" stroke="#637340" stroke-width="0.5"/>
<path d="M830.649 551.5L800.355 569.015C795.875 571.605 789.109 571.892 785.23 569.648L752.47 550.702C750.922 549.799 750.08 548.639 749.9 547.389C749.659 549 750.501 550.582 752.47 551.726L785.23 570.672C789.109 572.916 795.875 572.629 800.355 570.039L830.649 552.524C833.325 550.973 834.573 548.955 834.302 547.088C834.062 548.639 832.844 550.22 830.649 551.5Z" fill="#8DA55B"/>
<path d="M831.19 536.049H830.409C830.018 535.537 829.476 535.07 828.77 534.663L798.461 517.133C794.867 515.055 788.613 515.326 784.464 517.721L756.44 533.925C755.342 534.558 754.5 535.281 753.929 536.049H753.012V546.651H753.042C753.162 547.856 753.944 548.985 755.432 549.859L785.742 567.389C789.335 569.467 795.589 569.196 799.738 566.801L827.763 550.597C829.732 549.452 830.845 548.052 831.115 546.651H831.19V536.049Z" fill="#8DA55B"/>
<path d="M831.19 534.242H830.409C830.018 533.73 829.476 533.263 828.77 532.856L798.461 515.326C794.867 513.248 788.613 513.519 784.464 515.914L756.44 532.118C755.342 532.751 754.5 533.474 753.929 534.242H753.012V544.844H753.042C753.162 546.049 753.944 547.178 755.432 548.052L785.742 565.581C789.335 567.66 795.589 567.389 799.738 564.994L827.763 548.79C829.732 547.645 830.845 546.244 831.115 544.844H831.19V534.242Z" fill="#5B5B5B"/>
</g>
<path d="M834.791 447.154H833.949C833.528 446.612 832.942 446.1 832.175 445.663L799.415 426.718C795.536 424.474 788.771 424.76 784.29 427.35L753.996 444.865C752.809 445.558 751.907 446.341 751.29 447.154H750.298V537.981H750.328C750.448 539.276 751.305 540.511 752.914 541.445L785.674 560.39C789.553 562.634 796.318 562.348 800.798 559.758L831.092 542.243C833.212 541.008 834.43 539.487 834.716 537.981H834.791V447.154Z" fill="#8BC60C"/>
<path opacity="0.2" d="M785.659 470.196L752.899 451.25C749.02 449.006 749.501 445.091 753.982 442.501L784.276 424.986C788.756 422.395 795.522 422.109 799.4 424.353L832.16 443.299C836.039 445.543 835.558 449.458 831.078 452.049L800.784 469.563C796.303 472.154 789.538 472.44 785.659 470.196Z" fill="#BAFF00"/>
<path d="M831.078 451.371L800.784 468.886C796.303 471.476 789.538 471.762 785.659 469.518L752.899 450.573C751.351 449.669 750.509 448.509 750.328 447.259C750.088 448.871 750.93 450.452 752.899 451.597L785.659 470.542C789.538 472.786 796.303 472.5 800.784 469.91L831.078 452.395C833.754 450.844 835.002 448.826 834.731 446.958C834.506 448.509 833.273 450.091 831.078 451.371Z" fill="white"/>
<path d="M795.943 459.353C808.007 459.353 817.788 454.356 817.788 448.193C817.788 442.03 808.007 437.034 795.943 437.034C783.878 437.034 774.098 442.03 774.098 448.193C774.098 454.356 783.878 459.353 795.943 459.353Z" fill="#7AAF0D"/>
<path d="M810.811 440.709H775.074V447.666C775.074 447.666 775.074 447.757 775.074 447.817C775.074 453.57 783.072 458.238 792.935 458.238C802.798 458.238 810.796 453.57 810.796 447.817C810.796 447.772 810.796 447.726 810.796 447.666V440.709H810.811Z" fill="#ADED10"/>
<path d="M775.074 440.784C775.074 446.537 783.072 451.205 792.935 451.205C802.798 451.205 810.796 446.537 810.796 440.784C810.796 435.031 802.798 430.362 792.935 430.362C783.072 430.362 775.074 435.016 775.074 440.784Z" fill="#BAFF00"/>
<path d="M792.95 447.38C799.161 447.38 804.195 444.447 804.195 440.829C804.195 437.211 799.161 434.278 792.95 434.278C786.739 434.278 781.704 437.211 781.704 440.829C781.704 444.447 786.739 447.38 792.95 447.38Z" fill="#7AAF0D"/>
<path d="M792.95 440.483C797.235 440.483 800.948 441.883 802.843 443.931C803.7 443.013 804.181 441.943 804.181 440.829C804.181 437.215 799.144 434.278 792.935 434.278C786.726 434.278 781.689 437.215 781.689 440.829C781.689 441.958 782.171 443.013 783.027 443.931C784.937 441.868 788.665 440.483 792.95 440.483Z" fill="#9DDA11"/>
<path d="M792.95 451.16C783.193 451.16 775.27 446.597 775.089 440.919C775.089 440.98 775.074 441.04 775.074 441.1C775.074 446.853 783.072 451.522 792.935 451.522C802.798 451.522 810.796 446.853 810.796 441.1C810.796 441.04 810.796 440.98 810.781 440.919C810.63 446.597 802.707 451.16 792.95 451.16Z" fill="#7AAF0D"/>
<path opacity="0.5" d="M804.78 440.466V400H782.018V440.361C781.837 442.183 782.95 444.035 785.356 445.421C789.821 448.011 797.052 448.011 801.487 445.451C803.863 444.096 804.945 442.258 804.78 440.466Z" fill="url(#paint0_linear_0_345)"/>
<path d="M786.26 542.408V551.459L755.305 533.915V524.879L786.26 542.408Z" fill="#5B5B5B"/>
<path d="M755.876 533.583L785.704 550.48V542.725L755.876 525.842V533.583ZM786.831 552.423L754.748 534.246V523.915L786.831 542.077V552.423Z" fill="#5B5B5B"/>
<path d="M786.26 526.836V535.887L755.305 518.358V509.322L786.26 526.836Z" fill="#5B5B5B"/>
<path d="M755.876 518.026L785.704 534.924V527.168L755.876 510.285V518.026ZM786.831 536.866L754.748 518.689V508.358L786.831 526.52V536.866Z" fill="#5B5B5B"/>
<path d="M786.26 511.28V520.331L755.305 502.801V493.765L786.26 511.28Z" fill="#5B5B5B"/>
<path d="M755.876 502.469L785.704 519.367V511.611L755.876 494.728V502.469ZM786.831 521.294L754.748 503.117V492.786L786.831 510.948V521.294Z" fill="#5B5B5B"/>
<path d="M786.26 495.722V504.774L755.305 487.229V478.193L786.26 495.722Z" fill="#5B5B5B"/>
<path d="M755.876 486.897L785.704 503.795V496.039L755.876 479.156V486.897ZM786.831 505.737L754.748 487.56V477.229L786.831 495.391V505.737Z" fill="#5B5B5B"/>
<path d="M786.26 480.15V489.202L755.305 471.672V462.636L786.26 480.15Z" fill="#5B5B5B"/>
<path d="M755.876 471.34L785.704 488.238V480.482L755.876 463.6V471.34ZM786.831 490.18L754.748 472.003V461.672L786.831 479.834V490.18Z" fill="#5B5B5B"/>
<path d="M764.085 567.333V559.863L777.481 567.438V574.923L764.085 567.333Z" fill="#BAFF01"/>
<path opacity="0.05" d="M797.5 550C801.642 550 805 522.242 805 488C805 453.758 801.642 426 797.5 426C793.358 426 790 453.758 790 488C790 522.242 793.358 550 797.5 550Z" fill="#BAFF00"/>
<g opacity="0.2">
<path opacity="0.0909" d="M867.716 560.058C870.573 558.402 874.166 557.513 877.774 557.558C879.353 557.573 880.856 557.784 882.239 558.146C883.502 558.462 884.976 559.095 885.998 559.682L918.292 579.425C918.322 579.441 919.404 580.103 919.419 580.133C922.381 581.91 923.734 584.696 923.569 587.708C923.403 590.781 921.163 593.958 917.841 595.886L873.294 621.729C873.234 621.774 869.761 623.762 869.686 623.792C866.904 625.358 863.431 626.217 859.928 626.202C856.876 626.187 854.11 625.524 851.915 624.259L818.674 603.943C818.659 603.928 818.253 603.687 818.238 603.672C815.201 601.895 813.848 599.079 814.029 596.052C814.209 592.979 816.404 589.817 819.727 587.904L867.716 560.058Z" fill="black"/>
<path opacity="0.1818" d="M866.347 561.323C869.189 559.682 872.797 558.823 876.345 558.884C877.924 558.914 879.397 559.17 880.765 559.531C881.908 559.832 883.547 560.585 884.479 561.113L916.592 580.736C916.667 580.781 917.66 581.398 917.72 581.444C920.621 583.251 921.583 586.022 921.268 588.974C920.967 591.729 918.547 594.937 915.555 596.669L872.737 621.593C872.602 621.669 869.399 623.506 869.249 623.551C866.543 625.027 863.205 625.825 859.852 625.81C856.921 625.795 854.245 625.148 852.14 623.928L818.854 603.582C818.824 603.567 818.448 603.326 818.418 603.311C815.396 601.503 814.419 598.687 814.764 595.705C815.095 592.949 817.426 589.787 820.417 588.055L866.347 561.323Z" fill="black"/>
<path opacity="0.2727" d="M864.995 562.603C867.821 560.962 871.429 560.134 874.947 560.239C876.511 560.284 877.984 560.57 879.323 560.947C880.33 561.233 882.164 562.106 882.991 562.573L914.909 582.076C915.014 582.136 915.946 582.709 916.021 582.784C918.863 584.621 919.434 587.332 918.938 590.269C918.532 592.693 915.901 595.946 913.24 597.482L872.151 621.503C871.956 621.623 869.009 623.295 868.783 623.37C866.152 624.756 862.95 625.494 859.733 625.464C856.921 625.434 854.35 624.816 852.336 623.642L819.02 603.28C818.975 603.25 818.629 603.039 818.584 603.009C815.562 601.172 814.449 598.25 815.502 595.404C815.502 592.949 818.448 589.787 821.094 588.251L864.995 562.603Z" fill="black"/>
<path opacity="0.3636" d="M863.627 563.884C866.438 562.257 870.061 561.444 873.534 561.595C875.098 561.655 876.541 561.986 877.864 562.378C878.736 562.634 880.751 563.628 881.472 564.049L913.195 583.447C913.345 583.537 914.187 584.064 914.292 584.154C917.059 586.022 917.901 588.868 916.608 591.594C916.608 593.748 913.255 596.985 910.925 598.341L871.55 621.443C871.279 621.593 868.618 623.099 868.302 623.205C865.762 624.5 862.68 625.193 859.613 625.148C856.921 625.102 854.456 624.5 852.516 623.386L819.155 602.994C819.095 602.964 818.764 602.753 818.719 602.723C815.697 600.856 814.795 597.889 816.193 595.118C816.193 592.964 819.426 589.802 821.741 588.462L863.627 563.884Z" fill="black"/>
<path opacity="0.4545" d="M862.258 565.149C865.055 563.522 868.678 562.754 872.106 562.92C873.654 563.01 875.098 563.372 876.391 563.763C877.142 563.989 879.337 565.119 879.954 565.48L911.481 584.757C911.661 584.862 912.443 585.359 912.578 585.48C915.284 587.377 915.886 590.254 914.277 592.874C914.277 594.727 910.609 597.995 908.609 599.139L870.963 621.338C870.632 621.533 868.227 622.874 867.836 623.009C865.37 624.214 862.424 624.847 859.492 624.786C856.921 624.741 854.561 624.154 852.696 623.084L819.305 602.663C819.23 602.618 818.929 602.437 818.869 602.392C815.847 600.51 815.171 597.483 816.915 594.802C816.915 592.95 820.418 589.787 822.417 588.642L862.258 565.149Z" fill="black"/>
<path opacity="0.5455" d="M860.89 566.429C863.672 564.817 867.31 564.064 870.693 564.275C872.241 564.381 873.654 564.772 874.932 565.194C875.549 565.39 877.924 566.655 878.435 566.956L909.782 586.112C909.993 586.233 910.699 586.685 910.864 586.835C913.495 588.748 913.886 591.654 911.947 594.184C911.947 595.721 907.963 599.019 906.294 599.967L870.377 621.247C869.971 621.473 867.836 622.663 867.37 622.813C864.995 623.928 862.153 624.5 859.387 624.44C856.936 624.38 854.666 623.822 852.907 622.798L819.471 602.362C819.38 602.317 819.11 602.136 819.035 602.091C816.028 600.178 815.547 597.106 817.636 594.501C817.636 592.965 821.425 589.787 823.094 588.838L860.89 566.429Z" fill="black"/>
<path opacity="0.6364" d="M859.522 567.694C862.303 566.082 865.926 565.359 869.264 565.6C870.797 565.721 872.196 566.158 873.459 566.579C873.955 566.745 876.495 568.146 876.916 568.386L908.068 587.422C908.323 587.573 908.955 587.98 909.135 588.145C911.706 590.088 911.856 593.01 909.601 595.434C909.601 596.669 905.301 599.982 903.963 600.75L869.76 621.111C869.294 621.383 867.415 622.392 866.873 622.572C864.573 623.596 861.867 624.108 859.236 624.033C856.906 623.958 854.741 623.431 853.057 622.452L819.576 601.985C819.47 601.925 819.23 601.774 819.139 601.714C816.133 599.771 815.862 596.654 818.298 594.124C818.298 592.889 822.372 589.726 823.695 588.958L859.522 567.694Z" fill="black"/>
<path opacity="0.7273" d="M858.154 568.974C860.921 567.378 864.559 566.67 867.851 566.956C869.385 567.092 870.753 567.558 872.001 568.01C872.377 568.146 875.098 569.682 875.399 569.863L906.354 588.793C906.64 588.959 907.196 589.335 907.422 589.516C909.917 591.489 909.857 594.425 907.271 596.76C907.271 597.678 902.656 601.022 901.649 601.594L869.174 621.051C868.633 621.368 867.04 622.211 866.423 622.422C864.198 623.356 861.627 623.807 859.131 623.717C856.906 623.642 854.862 623.13 853.253 622.196L819.741 601.714C819.636 601.654 819.411 601.504 819.306 601.443C816.299 599.47 816.238 596.308 819.035 593.853C819.035 592.934 823.395 589.757 824.387 589.185L858.154 568.974Z" fill="black"/>
<path opacity="0.8182" d="M856.786 570.239C859.537 568.658 863.19 567.98 866.438 568.296C867.956 568.447 869.309 568.959 870.557 569.411C870.797 569.501 873.699 571.188 873.91 571.308L904.67 590.118C904.986 590.299 905.482 590.63 905.722 590.841C908.158 592.844 907.857 595.796 904.956 598.04C904.956 598.657 900.024 602.015 899.363 602.407L868.602 620.946C868.001 621.292 866.663 621.985 865.971 622.211C863.837 623.054 861.386 623.446 859.041 623.355C856.936 623.265 854.996 622.783 853.478 621.895L819.921 601.383C819.801 601.308 819.591 601.187 819.485 601.112C816.478 599.124 816.629 595.901 819.771 593.537C819.771 592.919 824.417 589.742 825.078 589.365L856.786 570.239Z" fill="black"/>
<path opacity="0.9091" d="M855.417 571.519C858.154 569.938 861.807 569.29 865.009 569.637C866.528 569.802 867.866 570.344 869.084 570.811C869.204 570.856 872.286 572.694 872.391 572.754L902.971 591.443C903.332 591.654 903.738 591.94 904.008 592.181C906.384 594.215 905.858 597.181 902.625 599.335C902.625 599.636 897.378 603.025 897.047 603.22L868.016 620.856C867.34 621.247 866.272 621.759 865.505 622.03C863.446 622.783 861.13 623.13 858.92 623.009C856.936 622.904 855.102 622.452 853.658 621.624L820.057 601.097C819.921 601.022 819.741 600.901 819.621 600.826C816.629 598.808 816.99 595.555 820.477 593.251C820.477 592.949 825.394 589.757 825.724 589.561L855.417 571.519Z" fill="black"/>
<path d="M853.839 621.322L820.207 600.765C816.734 598.747 817.17 595.238 821.185 592.919L854.065 572.799C858.079 570.48 864.153 570.224 867.641 572.242L901.272 592.799C904.745 594.817 904.309 598.326 900.295 600.645L867.415 620.765C863.386 623.084 857.312 623.34 853.839 621.322Z" fill="black"/>
</g>
<g opacity="0.7">
<path d="M902.347 585.284H901.505C901.085 584.741 900.498 584.229 899.731 583.793L866.972 564.847C863.093 562.603 856.327 562.889 851.847 565.48L821.553 582.994C820.365 583.687 819.463 584.47 818.847 585.284H817.854V598.25H817.884C818.005 599.545 818.862 600.78 820.47 601.714L853.23 620.659C857.109 622.903 863.875 622.617 868.355 620.027L898.649 602.512C900.769 601.277 901.987 599.756 902.272 598.25H902.347V585.284Z" fill="#5B5B5B"/>
<path d="M853.356 608.109L853.355 608.109L820.596 589.163C818.716 588.076 817.945 586.621 818.125 585.165C818.307 583.691 819.474 582.121 821.678 580.846L851.972 563.332L851.847 563.115L851.972 563.332C854.172 562.06 856.942 561.349 859.645 561.236C862.351 561.122 864.961 561.608 866.846 562.699L866.846 562.699L899.606 581.645C901.486 582.732 902.256 584.187 902.077 585.643C901.895 587.117 900.728 588.687 898.524 589.962L868.23 607.476C866.03 608.748 863.256 609.459 860.551 609.572C857.843 609.686 855.234 609.2 853.356 608.109Z" fill="#5B5B5B" stroke="#637340" stroke-width="0.5"/>
<path d="M898.649 589.5L868.355 607.015C863.875 609.605 857.109 609.892 853.23 607.648L820.47 588.702C818.922 587.799 818.08 586.639 817.9 585.389C817.659 587 818.501 588.582 820.47 589.726L853.23 608.672C857.109 610.916 863.875 610.629 868.355 608.039L898.649 590.524C901.325 588.973 902.573 586.955 902.302 585.088C902.062 586.639 900.844 588.22 898.649 589.5Z" fill="#8DA55B"/>
<path d="M899.19 574.049H898.409C898.018 573.537 897.476 573.07 896.77 572.663L866.461 555.133C862.867 553.055 856.613 553.326 852.464 555.721L824.44 571.925C823.342 572.558 822.5 573.281 821.929 574.049H821.012V584.651H821.042C821.162 585.856 821.944 586.985 823.432 587.859L853.742 605.389C857.335 607.467 863.589 607.196 867.738 604.801L895.763 588.597C897.732 587.452 898.845 586.052 899.115 584.651H899.19V574.049Z" fill="#8DA55B"/>
<path d="M899.19 572.242H898.409C898.018 571.73 897.476 571.263 896.77 570.856L866.461 553.326C862.867 551.248 856.613 551.519 852.464 553.914L824.44 570.118C823.342 570.751 822.5 571.474 821.929 572.242H821.012V582.844H821.042C821.162 584.049 821.944 585.178 823.432 586.052L853.742 603.581C857.335 605.66 863.589 605.389 867.738 602.994L895.763 586.79C897.732 585.645 898.845 584.244 899.115 582.844H899.19V572.242Z" fill="#5B5B5B"/>
</g>
<path d="M902.76 485.15H901.919C901.498 484.608 900.911 484.096 900.145 483.659L867.385 464.714C863.506 462.47 856.74 462.756 852.26 465.346L821.966 482.861C820.778 483.554 819.876 484.337 819.26 485.15H818.268V575.977H818.298C818.418 577.272 819.275 578.507 820.884 579.441L853.643 598.386C857.522 600.63 864.288 600.344 868.768 597.753L899.062 580.239C901.182 579.004 902.4 577.483 902.685 575.977H902.76V485.15Z" fill="#8BC60C"/>
<path opacity="0.2" d="M853.643 508.177L820.884 489.231C817.005 486.987 817.486 483.072 821.966 480.481L852.26 462.967C856.74 460.376 863.506 460.09 867.385 462.334L900.145 481.28C904.023 483.524 903.542 487.439 899.062 490.029L868.768 507.544C864.288 510.135 857.522 510.421 853.643 508.177Z" fill="#BAFF00"/>
<path d="M899.062 489.352L868.768 506.867C864.288 509.457 857.522 509.743 853.643 507.499L820.884 488.554C819.335 487.65 818.493 486.49 818.313 485.24C818.072 486.852 818.914 488.433 820.884 489.578L853.643 508.523C857.522 510.767 864.288 510.481 868.768 507.891L899.062 490.376C901.738 488.825 902.986 486.807 902.715 484.939C902.49 486.49 901.257 488.087 899.062 489.352Z" fill="white"/>
<path d="M863.912 497.334C875.977 497.334 885.757 492.338 885.757 486.174C885.757 480.011 875.977 475.015 863.912 475.015C851.848 475.015 842.067 480.011 842.067 486.174C842.067 492.338 851.848 497.334 863.912 497.334Z" fill="#7AAF0D"/>
<path d="M878.811 478.709H843.074V485.666C843.074 485.666 843.074 485.757 843.074 485.817C843.074 491.57 851.072 496.238 860.935 496.238C870.798 496.238 878.796 491.57 878.796 485.817C878.796 485.772 878.796 485.726 878.796 485.666V478.709H878.811Z" fill="#ADED10"/>
<path d="M843.074 478.784C843.074 484.537 851.072 489.205 860.935 489.205C870.798 489.205 878.796 484.537 878.796 478.784C878.796 473.031 870.798 468.362 860.935 468.362C851.072 468.362 843.074 473.016 843.074 478.784Z" fill="#BAFF00"/>
<path d="M860.95 485.38C867.161 485.38 872.195 482.447 872.195 478.829C872.195 475.211 867.161 472.278 860.95 472.278C854.739 472.278 849.704 475.211 849.704 478.829C849.704 482.447 854.739 485.38 860.95 485.38Z" fill="#7AAF0D"/>
<path d="M860.95 478.483C865.235 478.483 868.948 479.883 870.843 481.931C871.7 481.013 872.181 479.943 872.181 478.829C872.181 475.215 867.144 472.278 860.935 472.278C854.726 472.278 849.689 475.215 849.689 478.829C849.689 479.958 850.171 481.013 851.027 481.931C852.937 479.868 856.665 478.483 860.95 478.483Z" fill="#9DDA11"/>
<path d="M860.95 489.16C851.193 489.16 843.27 484.597 843.089 478.919C843.089 478.98 843.074 479.04 843.074 479.1C843.074 484.853 851.072 489.522 860.935 489.522C870.798 489.522 878.796 484.853 878.796 479.1C878.796 479.04 878.796 478.98 878.781 478.919C878.63 484.597 870.707 489.16 860.95 489.16Z" fill="#7AAF0D"/>
<path opacity="0.5" d="M872.75 478.447V437.996H849.988V478.357C849.807 480.179 850.92 482.031 853.325 483.417C857.79 486.007 865.022 486.007 869.457 483.447C871.848 482.077 872.93 480.254 872.75 478.447Z" fill="url(#paint1_linear_0_345)"/>
<path d="M854.801 590.404L824.5 571L822.718 498.78L854.801 516.942V590.404ZM825.628 570.352L853.674 588.477V517.604L823.845 500.722L825.628 570.352Z" fill="#5B5B5B"/>
<path d="M824.252 524.839L823.697 525.823L853.985 542.963L854.539 541.979L824.252 524.839Z" fill="#555553"/>
<path d="M824.872 549.857L824.318 550.84L854.003 567.639L854.558 566.656L824.872 549.857Z" fill="#555553"/>
<path d="M844.884 523.094L832.635 516.163V509.63L844.884 516.56V523.094Z" fill="#5B5B5B" stroke="#555553" stroke-width="0.5"/>
<path d="M844.884 548.515L832.635 541.57V535.036L844.884 541.967V548.515Z" fill="#5B5B5B" stroke="#555553" stroke-width="0.5"/>
<path d="M844.884 572.611L832.635 565.666V559.132L844.884 566.063V572.611Z" fill="#5B5B5B" stroke="#555553" stroke-width="0.5"/>
<path d="M832.069 605.314V597.844L845.465 605.419V612.904L832.069 605.314Z" fill="#BAFF01"/>
<path opacity="0.05" d="M861.191 592.483C868.116 592.483 873.73 564.615 873.73 530.24C873.73 495.864 868.116 467.997 861.191 467.997C854.266 467.997 848.652 495.864 848.652 530.24C848.652 564.615 854.266 592.483 861.191 592.483Z" fill="#BAFF00"/>
<g opacity="0.2">
<path opacity="0.0909" d="M936.303 600.51C939.16 598.853 942.753 597.965 946.361 598.01C947.94 598.025 949.443 598.236 950.826 598.597C952.089 598.914 953.563 599.546 954.585 600.133L986.879 619.877C986.909 619.892 987.991 620.555 988.006 620.585C990.968 622.362 992.321 625.148 992.156 628.16C991.99 631.232 989.75 634.41 986.428 636.338L941.881 662.18C941.821 662.226 938.348 664.214 938.273 664.244C935.491 665.81 932.018 666.668 928.515 666.653C925.463 666.638 922.697 665.976 920.502 664.711L887.261 644.395C887.246 644.38 886.84 644.139 886.825 644.124C883.788 642.346 882.435 639.53 882.615 636.503C882.796 633.431 884.991 630.268 888.313 628.356L936.303 600.51Z" fill="black"/>
<path opacity="0.1818" d="M934.935 601.775C937.776 600.133 941.384 599.275 944.933 599.335C946.511 599.365 947.984 599.621 949.353 599.983C950.495 600.284 952.134 601.037 953.066 601.564L985.179 621.187C985.255 621.232 986.247 621.85 986.307 621.895C989.209 623.702 990.171 626.473 989.84 629.425C989.539 632.181 987.119 635.389 984.127 637.121L941.309 662.045C941.174 662.12 937.972 663.958 937.821 664.003C935.115 665.479 931.777 666.277 928.425 666.262C925.493 666.247 922.817 665.599 920.712 664.379L887.426 644.033C887.396 644.018 887.02 643.777 886.99 643.762C883.968 641.955 882.991 639.139 883.337 636.157C883.652 633.401 885.998 630.238 888.99 628.506L934.935 601.775Z" fill="black"/>
<path opacity="0.2727" d="M933.567 603.055C936.393 601.413 940.001 600.585 943.519 600.691C945.083 600.736 946.556 601.022 947.894 601.398C948.902 601.685 950.736 602.558 951.563 603.025L983.481 622.528C983.586 622.588 984.518 623.16 984.593 623.235C987.435 625.073 988.006 627.783 987.525 630.72C987.119 633.145 984.488 636.398 981.827 637.934L940.738 661.955C940.543 662.075 937.596 663.747 937.37 663.822C934.739 665.207 931.537 665.945 928.32 665.915C925.508 665.885 922.937 665.268 920.923 664.093L887.607 643.732C887.562 643.702 887.216 643.491 887.171 643.461C884.149 641.624 883.036 638.702 884.089 635.856C884.089 633.401 887.035 630.238 889.681 628.702L933.567 603.055Z" fill="black"/>
<path opacity="0.3636" d="M932.198 604.32C935.009 602.694 938.633 601.88 942.106 602.031C943.669 602.091 945.113 602.422 946.436 602.814C947.308 603.07 949.322 604.064 950.044 604.486L981.766 623.883C981.917 623.958 982.759 624.5 982.864 624.591C985.63 626.458 986.472 629.304 985.179 632.03C985.179 634.184 981.826 637.422 979.496 638.777L940.121 661.879C939.85 662.03 937.189 663.536 936.874 663.641C934.333 664.936 931.251 665.629 928.184 665.584C925.493 665.539 923.027 664.936 921.088 663.822L887.726 643.431C887.666 643.401 887.336 643.19 887.29 643.16C884.268 641.292 883.366 638.325 884.765 635.554C884.765 633.401 887.997 630.238 890.312 628.898L932.198 604.32Z" fill="black"/>
<path opacity="0.4545" d="M930.831 605.6C933.627 603.974 937.25 603.206 940.678 603.371C942.227 603.462 943.67 603.823 944.963 604.215C945.715 604.441 947.91 605.57 948.526 605.932L980.053 625.208C980.233 625.314 981.015 625.811 981.151 625.931C983.857 627.829 984.458 630.705 982.849 633.326C982.849 635.178 979.181 638.446 977.181 639.591L939.535 661.774C939.205 661.97 936.799 663.31 936.408 663.446C933.943 664.65 930.996 665.283 928.064 665.223C925.493 665.178 923.133 664.59 921.269 663.521L887.877 643.1C887.802 643.054 887.502 642.874 887.441 642.829C884.42 640.946 883.743 637.919 885.487 635.238C885.487 633.386 888.99 630.223 890.99 629.079L930.831 605.6Z" fill="black"/>
<path opacity="0.5455" d="M929.478 606.88C932.259 605.269 935.897 604.516 939.28 604.727C940.828 604.832 942.242 605.224 943.52 605.646C944.136 605.841 946.511 607.106 947.023 607.408L978.369 626.564C978.58 626.684 979.286 627.136 979.452 627.287C982.083 629.199 982.474 632.106 980.534 634.636C980.534 636.172 976.55 639.47 974.881 640.419L938.949 661.699C938.543 661.925 936.408 663.114 935.942 663.265C933.567 664.379 930.725 664.952 927.959 664.891C925.508 664.831 923.238 664.274 921.479 663.25L888.043 642.814C887.953 642.768 887.682 642.588 887.607 642.542C884.6 640.63 884.119 637.558 886.209 634.952C886.209 633.416 889.997 630.238 891.666 629.29L929.478 606.88Z" fill="black"/>
<path opacity="0.6364" d="M928.109 608.145C930.89 606.534 934.513 605.811 937.851 606.052C939.384 606.172 940.783 606.609 942.045 607.031C942.542 607.196 945.082 608.597 945.503 608.838L976.655 627.874C976.91 628.024 977.542 628.431 977.722 628.597C980.293 630.539 980.443 633.461 978.188 635.886C978.188 637.121 973.888 640.434 972.55 641.202L938.347 661.563C937.881 661.834 936.002 662.843 935.46 663.024C933.16 664.048 930.454 664.56 927.823 664.485C925.493 664.409 923.328 663.882 921.644 662.903L888.162 642.437C888.057 642.377 887.817 642.226 887.726 642.166C884.719 640.223 884.449 637.106 886.884 634.576C886.884 633.341 890.959 630.178 892.282 629.41L928.109 608.145Z" fill="black"/>
<path opacity="0.7273" d="M926.741 609.426C929.507 607.829 933.146 607.121 936.438 607.408C937.972 607.543 939.34 608.01 940.588 608.462C940.964 608.597 943.685 610.133 943.986 610.314L974.941 629.245C975.227 629.41 975.783 629.787 976.009 629.967C978.504 631.94 978.444 634.877 975.858 637.211C975.858 638.13 971.243 641.473 970.235 642.045L937.761 661.503C937.22 661.819 935.626 662.663 935.01 662.873C932.785 663.807 930.214 664.259 927.718 664.169C925.493 664.093 923.449 663.581 921.84 662.648L888.328 642.166C888.223 642.106 887.998 641.955 887.892 641.895C884.886 639.922 884.825 636.759 887.622 634.305C887.622 633.386 891.982 630.208 892.974 629.636L926.741 609.426Z" fill="black"/>
<path opacity="0.8182" d="M925.373 610.69C928.124 609.094 931.777 608.431 935.025 608.748C936.543 608.898 937.896 609.41 939.144 609.862C939.385 609.953 942.286 611.639 942.497 611.76L973.257 630.57C973.573 630.75 974.069 631.082 974.31 631.292C976.745 633.295 976.444 636.247 973.543 638.491C973.543 639.109 968.612 642.467 967.935 642.859L937.175 661.397C936.573 661.744 935.235 662.437 934.544 662.662C932.409 663.506 929.958 663.912 927.613 663.807C925.508 663.717 923.569 663.235 922.05 662.346L888.494 641.834C888.373 641.759 888.163 641.639 888.058 641.563C885.051 639.575 885.201 636.353 888.343 633.988C888.343 633.371 892.989 630.193 893.65 629.817L925.373 610.69Z" fill="black"/>
<path opacity="0.9091" d="M924.004 611.971C926.74 610.389 930.394 609.742 933.596 610.088C935.115 610.254 936.453 610.796 937.67 611.263C937.791 611.308 940.873 613.145 940.978 613.206L971.558 631.895C971.919 632.106 972.325 632.392 972.595 632.633C974.971 634.666 974.444 637.633 971.212 639.786C971.212 640.088 965.965 643.476 965.634 643.672L936.603 661.307C935.926 661.699 934.859 662.211 934.092 662.482C932.033 663.235 929.717 663.581 927.507 663.461C925.523 663.355 923.689 662.903 922.245 662.075L888.644 641.548C888.508 641.473 888.328 641.353 888.207 641.277C885.216 639.259 885.576 636.006 889.064 633.702C889.064 633.401 893.981 630.208 894.311 630.012L924.004 611.971Z" fill="black"/>
<path d="M922.411 661.774L888.78 641.217C885.307 639.199 885.743 635.69 889.757 633.371L922.637 613.251C926.651 610.931 932.725 610.675 936.213 612.693L969.845 633.25C973.318 635.268 972.882 638.777 968.868 641.097L935.987 661.217C931.973 663.536 925.899 663.792 922.411 661.774Z" fill="black"/>
</g>
<g opacity="0.7">
<path d="M971.347 625.284H970.505C970.085 624.741 969.498 624.229 968.731 623.793L935.972 604.847C932.093 602.603 925.327 602.889 920.847 605.48L890.553 622.994C889.365 623.687 888.463 624.47 887.847 625.284H886.854V638.25H886.884C887.005 639.545 887.862 640.78 889.47 641.714L922.23 660.659C926.109 662.903 932.875 662.617 937.355 660.027L967.649 642.512C969.769 641.277 970.987 639.756 971.272 638.25H971.347V625.284Z" fill="#5B5B5B"/>
<path d="M922.356 648.109L922.355 648.109L889.596 629.163C887.716 628.076 886.945 626.621 887.125 625.165C887.307 623.691 888.474 622.121 890.678 620.846L920.972 603.332L920.847 603.115L920.972 603.332C923.172 602.06 925.942 601.349 928.645 601.236C931.351 601.122 933.961 601.608 935.846 602.699L935.846 602.699L968.606 621.645C970.486 622.732 971.256 624.187 971.077 625.643C970.895 627.117 969.728 628.687 967.524 629.962L937.23 647.476C935.03 648.748 932.256 649.459 929.551 649.572C926.843 649.686 924.234 649.2 922.356 648.109Z" fill="#5B5B5B" stroke="#637340" stroke-width="0.5"/>
<path d="M967.649 629.5L937.355 647.015C932.875 649.605 926.109 649.892 922.23 647.648L889.47 628.702C887.922 627.799 887.08 626.639 886.9 625.389C886.659 627 887.501 628.582 889.47 629.726L922.23 648.672C926.109 650.916 932.875 650.629 937.355 648.039L967.649 630.524C970.325 628.973 971.573 626.955 971.302 625.088C971.062 626.639 969.844 628.22 967.649 629.5Z" fill="#8DA55B"/>
<path d="M968.19 614.049H967.409C967.018 613.537 966.476 613.07 965.77 612.663L935.461 595.133C931.867 593.055 925.613 593.326 921.464 595.721L893.44 611.925C892.342 612.558 891.5 613.281 890.929 614.049H890.012V624.651H890.042C890.162 625.856 890.944 626.985 892.432 627.859L922.742 645.389C926.335 647.467 932.589 647.196 936.738 644.801L964.763 628.597C966.732 627.452 967.845 626.052 968.115 624.651H968.19V614.049Z" fill="#8DA55B"/>
<path d="M968.19 612.242H967.409C967.018 611.73 966.476 611.263 965.77 610.856L935.461 593.326C931.867 591.248 925.613 591.519 921.464 593.914L893.44 610.118C892.342 610.751 891.5 611.474 890.929 612.242H890.012V622.844H890.042C890.162 624.049 890.944 625.178 892.432 626.052L922.742 643.581C926.335 645.66 932.589 645.389 936.738 642.994L964.763 626.79C966.732 625.645 967.845 624.244 968.115 622.844H968.19V612.242Z" fill="#5B5B5B"/>
</g>
<path d="M971.347 525.601H970.505C970.085 525.059 969.498 524.547 968.731 524.111L935.972 505.165C932.093 502.921 925.327 503.207 920.847 505.798L890.553 523.312C889.365 524.005 888.463 524.788 887.847 525.601H886.854V616.428H886.884C887.005 617.723 887.862 618.958 889.47 619.892L922.23 638.837C926.109 641.081 932.875 640.795 937.355 638.205L967.649 620.69C969.769 619.455 970.987 617.934 971.272 616.428H971.347V525.601Z" fill="#8BC60C"/>
<path opacity="0.2" d="M922.23 548.628L889.47 529.683C885.592 527.439 886.073 523.523 890.553 520.933L920.847 503.418C925.327 500.828 932.093 500.542 935.972 502.786L968.731 521.731C972.61 523.975 972.129 527.891 967.649 530.481L937.355 547.996C932.875 550.586 926.094 550.872 922.23 548.628Z" fill="#BAFF00"/>
<path d="M967.649 529.803L937.355 547.318C932.875 549.908 926.109 550.194 922.23 547.95L889.47 529.005C887.922 528.101 887.08 526.942 886.9 525.692C886.659 527.303 887.501 528.885 889.47 530.029L922.23 548.975C926.109 551.218 932.875 550.932 937.355 548.342L967.649 530.827C970.325 529.276 971.573 527.258 971.302 525.391C971.062 526.942 969.844 528.538 967.649 529.803Z" fill="white"/>
<path d="M932.499 537.785C944.564 537.785 954.344 532.789 954.344 526.626C954.344 520.463 944.564 515.466 932.499 515.466C920.435 515.466 910.654 520.463 910.654 526.626C910.654 532.789 920.435 537.785 932.499 537.785Z" fill="#7AAF0D"/>
<path d="M947.811 518.709H912.074V525.666C912.074 525.666 912.074 525.757 912.074 525.817C912.074 531.57 920.072 536.238 929.935 536.238C939.798 536.238 947.796 531.57 947.796 525.817C947.796 525.772 947.796 525.726 947.796 525.666V518.709H947.811Z" fill="#ADED10"/>
<path d="M912.074 518.784C912.074 524.537 920.072 529.205 929.935 529.205C939.798 529.205 947.796 524.537 947.796 518.784C947.796 513.031 939.798 508.362 929.935 508.362C920.072 508.362 912.074 513.016 912.074 518.784Z" fill="#BAFF00"/>
<path d="M929.95 525.38C936.161 525.38 941.195 522.447 941.195 518.829C941.195 515.211 936.161 512.278 929.95 512.278C923.739 512.278 918.704 515.211 918.704 518.829C918.704 522.447 923.739 525.38 929.95 525.38Z" fill="#7AAF0D"/>
<path d="M929.95 518.483C934.235 518.483 937.948 519.883 939.843 521.931C940.7 521.013 941.181 519.943 941.181 518.829C941.181 515.215 936.144 512.278 929.935 512.278C923.726 512.278 918.689 515.215 918.689 518.829C918.689 519.958 919.171 521.013 920.027 521.931C921.937 519.868 925.665 518.483 929.95 518.483Z" fill="#9DDA11"/>
<path d="M929.95 529.16C920.193 529.16 912.27 524.597 912.089 518.919C912.089 518.98 912.074 519.04 912.074 519.1C912.074 524.853 920.072 529.522 929.935 529.522C939.798 529.522 947.796 524.853 947.796 519.1C947.796 519.04 947.796 518.98 947.781 518.919C947.63 524.597 939.707 529.16 929.95 529.16Z" fill="#7AAF0D"/>
<path opacity="0.5" d="M941.78 518.451V478H918.018V518.361C917.837 520.183 918.95 522.035 921.355 523.421C925.821 526.011 934.052 526.011 938.487 523.451C940.863 522.081 941.945 520.258 941.78 518.451Z" fill="url(#paint2_linear_0_345)"/>
<path d="M922.817 591.399V629.892L891.876 612.362V573.884L922.817 591.399Z" fill="#637340"/>
<path d="M923.388 630.856L891.305 612.678V572.92L923.388 591.082V630.856ZM892.432 612.031L922.26 628.928V591.73L892.432 574.848V612.031Z" fill="#BAFF00"/>
<path d="M922.817 557.724V567.303L891.876 549.773V540.21L922.817 557.724Z" fill="#5B5B5B"/>
<path d="M923.388 568.266L891.305 550.089V539.231L923.388 557.393V568.266ZM892.432 549.441L922.26 566.339V558.056L892.432 541.173V549.441Z" fill="#5B5B5B"/>
<path d="M922.817 574.724V584.303L891.876 566.773V557.21L922.817 574.724Z" fill="#5B5B5B"/>
<path d="M923.388 585.266L891.305 567.089V556.231L923.388 574.393V585.266ZM892.432 566.441L922.26 583.339V575.056L892.432 558.173V566.441Z" fill="#5B5B5B"/>
<path d="M881.066 591.474V618.25L900.897 606.88V580.104L881.066 591.474Z" fill="#9CA28F"/>
<path d="M881.097 591.474V618.25L879.383 617.241V590.495L881.097 591.474Z" fill="url(#paint3_linear_0_345)"/>
<path d="M879.383 590.495L881.097 591.474L900.897 580.103L899.138 579.094L879.383 590.495Z" fill="#A1BD63"/>
<path d="M900.641 645.765V638.295L914.051 645.871V653.355L900.641 645.765Z" fill="#BAFF01"/>
<path opacity="0.05" d="M933.5 633C938.194 633 942 605.018 942 570.5C942 535.982 938.194 508 933.5 508C928.806 508 925 535.982 925 570.5C925 605.018 928.806 633 933.5 633Z" fill="#BAFF00"/>
<path d="M911.436 592.408V625.253L913.555 624.094V591.233L911.436 592.408Z" fill="#BAFF00"/>
<path d="M911.451 592.408V625.253L885.968 610.374V577.544L911.451 592.408Z" fill="#637340"/>
<path d="M885.968 577.544L911.451 592.408L913.556 591.233L888.043 576.354L885.968 577.544Z" fill="#BAFF00"/>
<path d="M906.429 595.675V628.521L908.534 627.347V594.501L906.429 595.675Z" fill="#BAFF00"/>
<path d="M906.444 595.676V628.521L880.961 613.642V580.811L906.444 595.676Z" fill="#637340"/>
<path d="M880.961 580.811L906.444 595.676L908.534 594.501L883.021 579.622L880.961 580.811Z" fill="#BAFF00"/>
<path d="M902.37 610.811V637.588L922.185 626.217V599.441L902.37 610.811Z" fill="#5B5B5B"/>
<path d="M902.4 610.811V637.588L900.687 636.579V609.817L902.4 610.811Z" fill="url(#paint4_linear_0_345)"/>
<path d="M900.687 609.817L902.4 610.811L922.186 599.441L920.442 598.432L900.687 609.817Z" fill="#9DDA11"/>
<path d="M900.837 601.157V639.063L903.272 637.708V599.802L900.837 601.157Z" fill="#BAFF00"/>
<path d="M900.852 601.157V639.063L871.444 621.895V584.004L900.852 601.157Z" fill="#8BC60C"/>
<path d="M871.444 584.004L900.852 601.157L903.272 599.802L873.835 582.634L871.444 584.004Z" fill="#BAFF00"/>
<path d="M891.927 606.285L879.678 599.34V592.806L891.927 599.737V606.285Z" fill="#555555" stroke="#8BC60C" stroke-width="0.5"/>
<g opacity="0.01" filter="url(#filter0_f_0_345)">
<path d="M529.608 799C656.141 799 758.717 687.296 758.717 549.502C758.717 411.707 656.141 300.003 529.608 300.003C403.075 300.003 300.5 411.707 300.5 549.502C300.5 687.296 403.075 799 529.608 799Z" fill="url(#paint5_radial_0_345)"/>
</g>
<g opacity="0.2">
<path opacity="0.0909" d="M544.041 618.16C550.085 614.666 557.692 612.783 565.3 612.859C568.637 612.889 571.81 613.341 574.741 614.079C577.418 614.756 580.53 616.082 582.71 617.347L650.966 659.063C651.041 659.108 653.371 660.539 653.431 660.599C659.701 664.364 662.557 670.252 662.226 676.608C661.88 683.098 657.13 689.83 650.109 693.896L555.933 748.534C555.798 748.609 548.401 752.871 548.236 752.916C542.342 756.23 535.021 758.052 527.609 758.022C521.159 758.007 515.281 756.576 510.65 753.895L440.395 710.944C440.364 710.929 439.447 710.357 439.417 710.342C433.013 706.577 430.141 700.628 430.517 694.243C430.893 687.752 435.553 681.065 442.575 676.999L544.041 618.16Z" fill="black"/>
<path opacity="0.1818" d="M541.139 620.856C547.153 617.377 554.776 615.554 562.293 615.705C565.615 615.78 568.758 616.307 571.629 617.075C574.035 617.723 577.538 619.304 579.492 620.434L647.342 661.909C647.492 661.999 649.672 663.34 649.793 663.445C655.912 667.27 657.956 673.114 657.28 679.348C656.633 685.162 651.507 691.969 645.192 695.628L554.655 748.338C554.37 748.504 547.544 752.404 547.228 752.51C541.5 755.642 534.449 757.329 527.353 757.284C521.144 757.239 515.506 755.868 511.056 753.293L440.71 710.297C440.65 710.267 439.778 709.724 439.733 709.694C433.343 705.869 431.283 699.92 432.02 693.61C432.697 687.797 437.643 681.08 443.972 677.421L541.139 620.856Z" fill="black"/>
<path opacity="0.2727" d="M538.253 623.551C544.236 620.088 551.874 618.325 559.301 618.551C562.608 618.657 565.721 619.259 568.547 620.057C570.682 620.66 574.561 622.512 576.305 623.521L643.749 664.74C643.989 664.876 646.004 666.126 646.169 666.291C652.153 670.177 653.386 675.915 652.333 682.104C651.476 687.24 645.899 694.122 640.276 697.375L553.377 748.157C552.956 748.398 546.702 751.953 546.206 752.118C540.658 755.055 533.863 756.621 527.067 756.546C521.114 756.486 515.686 755.16 511.416 752.691L440.981 709.634C440.89 709.574 440.078 709.092 440.003 709.032C433.629 705.146 431.283 698.987 433.493 692.948C433.493 687.737 439.718 681.05 445.341 677.812L538.253 623.551Z" fill="black"/>
<path opacity="0.3636" d="M535.367 626.247C541.32 622.798 548.973 621.096 556.309 621.398C559.602 621.533 562.669 622.226 565.465 623.054C567.315 623.596 571.599 625.72 573.133 626.608L640.171 667.587C640.487 667.767 642.336 668.927 642.577 669.138C648.41 673.083 650.169 679.107 647.433 684.845C647.433 689.393 640.336 696.261 635.405 699.107L552.145 747.962C551.574 748.293 545.891 751.501 545.229 751.712C539.847 754.452 533.322 755.898 526.842 755.808C521.144 755.718 515.927 754.452 511.838 752.073L441.312 708.971C441.191 708.896 440.44 708.444 440.32 708.369C433.96 704.438 432.066 698.158 434.997 692.3C434.997 687.752 441.823 681.05 446.739 678.204L535.367 626.247Z" fill="black"/>
<path opacity="0.4545" d="M532.465 628.943C538.389 625.509 546.056 623.868 553.303 624.229C556.58 624.41 559.617 625.178 562.368 626.021C563.947 626.503 568.623 628.913 569.931 629.681L636.578 670.418C636.969 670.644 638.668 671.713 638.953 671.984C644.636 675.99 645.914 682.059 642.501 687.586C642.501 691.487 634.729 698.399 630.519 700.839L550.897 747.766C550.191 748.173 545.064 751.034 544.252 751.305C539.035 753.865 532.796 755.175 526.617 755.07C521.174 754.965 516.183 753.745 512.259 751.471L441.643 708.309C441.477 708.219 440.801 707.797 440.65 707.691C434.306 703.701 432.848 697.33 436.531 691.637C436.531 687.737 443.958 681.035 448.168 678.596L532.465 628.943Z" fill="black"/>
<path opacity="0.5455" d="M529.578 631.639C535.471 628.235 543.154 626.624 550.31 627.075C553.573 627.286 556.564 628.13 559.286 629.003C560.594 629.425 565.645 632.12 566.743 632.753L632.984 673.234C633.45 673.505 634.999 674.484 635.344 674.8C640.877 678.852 641.689 684.966 637.585 690.297C637.585 693.55 629.15 700.508 625.632 702.541L549.664 747.54C548.807 748.037 544.251 750.537 543.274 750.868C538.238 753.233 532.254 754.422 526.376 754.287C521.189 754.166 516.408 752.992 512.664 750.823L441.958 707.601C441.762 707.496 441.146 707.104 440.965 706.984C434.636 702.932 433.629 696.472 438.049 690.945C438.049 687.692 446.062 680.99 449.58 678.957L529.578 631.639Z" fill="black"/>
<path opacity="0.6364" d="M526.691 634.334C532.555 630.946 540.252 629.395 547.318 629.922C550.566 630.163 553.528 631.096 556.204 632C557.256 632.346 562.683 635.343 563.555 635.855L629.391 676.095C629.932 676.412 631.315 677.315 631.721 677.677C637.118 681.788 637.434 687.948 632.653 693.083C632.653 695.689 623.542 702.691 620.731 704.318L548.401 747.389C547.409 747.962 543.424 750.115 542.267 750.507C537.396 752.675 531.683 753.76 526.12 753.594C521.174 753.444 516.618 752.314 513.055 750.251L442.258 706.983C442.033 706.848 441.462 706.502 441.266 706.366C434.952 702.255 434.38 695.689 439.537 690.342C439.537 687.737 448.152 681.02 450.963 679.409L526.691 634.334Z" fill="black"/>
<path opacity="0.7273" d="M523.805 637.03C529.639 633.656 537.351 632.165 544.327 632.753C547.559 633.039 550.476 634.033 553.122 634.967C553.904 635.238 559.722 638.536 560.369 638.912L625.798 678.897C626.415 679.258 627.647 680.071 628.098 680.478C633.345 684.649 633.18 690.839 627.723 695.779C627.723 697.737 617.95 704.785 615.845 706.005L547.154 747.148C546.011 747.811 542.598 749.618 541.29 750.055C536.599 752.028 531.142 752.992 525.895 752.796C521.204 752.63 516.874 751.546 513.477 749.588L442.59 706.261C442.334 706.11 441.823 705.794 441.597 705.643C435.298 701.487 435.178 694.815 441.071 689.634C441.071 687.677 450.287 680.96 452.392 679.74L523.805 637.03Z" fill="black"/>
<path opacity="0.8182" d="M520.903 639.726C526.722 636.367 534.434 634.937 541.32 635.599C544.537 635.915 547.409 637 550.025 637.949C550.551 638.144 556.73 641.744 557.166 642L622.19 681.743C622.896 682.15 623.949 682.872 624.475 683.339C629.572 687.571 628.94 693.806 622.791 698.535C622.791 699.83 612.342 706.953 610.944 707.767L545.89 746.983C544.613 747.721 541.756 749.182 540.283 749.678C535.757 751.471 530.585 752.299 525.624 752.088C521.189 751.892 517.07 750.868 513.852 749.016L442.875 705.628C442.589 705.462 442.138 705.176 441.883 705.011C435.598 700.794 435.929 694.032 442.544 689.002C442.544 687.707 452.362 680.975 453.76 680.162L520.903 639.726Z" fill="black"/>
<path opacity="0.9091" d="M518.017 642.421C523.806 639.078 531.533 637.708 538.329 638.446C541.531 638.807 544.357 639.951 546.928 640.945C547.184 641.051 553.754 644.966 553.964 645.087L618.582 684.589C619.364 685.041 620.266 685.674 620.837 686.186C625.783 690.478 624.671 696.743 617.845 701.291C617.845 701.938 606.735 709.107 606.028 709.513L544.613 746.802C543.185 747.63 540.9 748.73 539.261 749.287C534.916 750.883 530 751.591 525.354 751.365C521.175 751.154 517.266 750.175 514.244 748.413L443.176 704.98C442.861 704.8 442.47 704.559 442.184 704.348C435.915 700.071 436.681 693.204 444.048 688.354C444.048 687.707 454.467 680.975 455.159 680.568L518.017 642.421Z" fill="black"/>
<path d="M514.664 747.781L443.506 704.288C436.139 700.026 437.071 692.601 445.566 687.677L515.115 645.102C523.609 640.192 536.463 639.65 543.83 643.912L614.988 687.405C622.355 691.667 621.423 699.092 612.928 704.017L543.379 746.591C534.885 751.516 522.03 752.043 514.664 747.781Z" fill="black"/>
</g>
<path d="M618.16 673.776H616.386C615.484 672.617 614.236 671.547 612.628 670.614L543.334 630.539C535.126 625.795 520.813 626.398 511.341 631.864L447.25 668.927C444.739 670.388 442.83 672.044 441.522 673.776H439.417V698.008H439.477C439.748 700.764 441.537 703.354 444.965 705.342L514.258 745.417C522.467 750.16 536.779 749.558 546.251 744.091L610.342 707.029C614.838 704.423 617.409 701.201 618.01 698.008H618.175V673.776H618.16Z" fill="#404040"/>
<path opacity="0.2" d="M514.258 722.51L444.965 682.436C436.756 677.692 437.793 669.409 447.265 663.927L511.356 626.865C520.828 621.383 535.156 620.795 543.35 625.539L612.643 665.614C620.852 670.358 619.814 678.641 610.343 684.123L546.251 721.185C536.78 726.652 522.452 727.254 514.258 722.51Z" fill="#BAFF00"/>
<path d="M610.328 682.677L546.236 719.739C536.765 725.221 522.437 725.808 514.243 721.065L444.95 680.99C441.657 679.092 439.883 676.608 439.507 673.972C438.996 677.391 440.77 680.719 444.95 683.129L514.243 723.203C522.452 727.947 536.765 727.345 546.236 721.878L610.328 684.815C615.996 681.532 618.612 677.255 618.07 673.324C617.589 676.623 614.988 679.996 610.328 682.677Z" fill="#999E8D"/>
<path opacity="0.2" d="M613.385 486.777C613.129 484.186 611.445 481.732 608.213 479.864L542.919 442.094C535.191 437.621 521.69 438.178 512.775 443.344L452.382 478.268C448.142 480.723 445.722 483.765 445.15 486.762H445V672.346H445.06C445.12 672.978 445.271 673.611 445.511 674.228C446.443 671.638 448.744 669.078 452.397 666.969L512.79 632.045C521.72 626.88 535.206 626.322 542.934 630.795L608.228 668.566C610.663 669.966 612.212 671.713 612.949 673.596C613.099 673.189 613.219 672.767 613.294 672.361H613.445V486.777H613.385Z" fill="#BAFF00"/>
<path d="M532.9 704.604C568.388 704.604 597.157 689.912 597.157 671.788C597.157 653.665 568.388 638.973 532.9 638.973C497.412 638.973 468.644 653.665 468.644 671.788C468.644 689.912 497.412 704.604 532.9 704.604Z" fill="#939393"/>
<path d="M591.85 649.123H465.096V668.204C465.096 668.204 465.096 668.551 465.096 668.716C465.096 689.137 493.466 705.688 528.481 705.688C563.48 705.688 591.865 689.137 591.865 668.716C591.865 668.551 591.85 668.37 591.85 668.204H591.865V649.123H591.85Z" fill="#BAFF00"/>
<path d="M528.481 686.351C563.487 686.351 591.865 669.798 591.865 649.379C591.865 628.96 563.487 612.407 528.481 612.407C493.474 612.407 465.096 628.96 465.096 649.379C465.096 669.798 493.474 686.351 528.481 686.351Z" fill="#BAFF00"/>
<path d="M528.481 686.201C493.856 686.201 465.742 670.011 465.126 649.891C465.126 650.117 465.096 650.328 465.096 650.554C465.096 670.975 493.466 687.526 528.481 687.526C563.48 687.526 591.865 670.975 591.865 650.554C591.865 650.328 591.85 650.117 591.835 649.891C591.219 669.996 563.09 686.201 528.481 686.201Z" fill="#8ECA0A"/>
<path d="M587.491 629.5H469.456V645.659H469.471C469.471 645.825 469.456 645.976 469.456 646.141C469.456 665.162 495.886 680.568 528.481 680.568C561.075 680.568 587.506 665.162 587.506 646.141C587.506 645.976 587.491 645.825 587.491 645.659H587.506V629.5H587.491Z" fill="#7AAF0C"/>
<path d="M587.491 626.699H469.456V642.858H469.471C469.471 643.024 469.456 643.175 469.456 643.34C469.456 662.361 495.886 677.767 528.481 677.767C561.075 677.767 587.506 662.361 587.506 643.34C587.506 643.175 587.491 643.024 587.491 642.858H587.506V626.699H587.491Z" fill="#ADED0F"/>
<path d="M591.85 614.38H465.096V633.461C465.096 633.461 465.096 633.807 465.096 633.973C465.096 654.394 493.466 670.945 528.481 670.945C563.48 670.945 591.865 654.394 591.865 633.973C591.865 633.807 591.85 633.626 591.85 633.461H591.865V614.38H591.85Z" fill="#BAFF00"/>
<path d="M528.481 651.608C563.487 651.608 591.865 635.055 591.865 614.636C591.865 594.217 563.487 577.664 528.481 577.664C493.474 577.664 465.096 594.217 465.096 614.636C465.096 635.055 493.474 651.608 528.481 651.608Z" fill="#BAFF00"/>
<path d="M528.481 651.457C493.856 651.457 465.742 635.268 465.126 615.148C465.126 615.374 465.096 615.585 465.096 615.81C465.096 636.232 493.466 652.783 528.481 652.783C563.48 652.783 591.865 636.232 591.865 615.81C591.865 615.585 591.85 615.374 591.835 615.148C591.219 635.253 563.09 651.457 528.481 651.457Z" fill="#8ECA0A"/>
<path d="M587.491 594.742H469.456V610.901H469.471C469.471 611.067 469.456 611.217 469.456 611.383C469.456 630.404 495.886 645.81 528.481 645.81C561.075 645.81 587.506 630.404 587.506 611.383C587.506 611.217 587.491 611.067 587.491 610.901H587.506V594.742H587.491Z" fill="#7AAF0C"/>
<path d="M587.491 591.956H469.456V608.115H469.471C469.471 608.281 469.456 608.431 469.456 608.597C469.456 627.618 495.886 643.024 528.481 643.024C561.075 643.024 587.506 627.618 587.506 608.597C587.506 608.431 587.491 608.281 587.491 608.115H587.506V591.956H587.491Z" fill="#ADED0F"/>
<path d="M591.85 580.6H465.096V599.681C465.096 599.681 465.096 600.028 465.096 600.193C465.096 620.615 493.466 637.166 528.481 637.166C563.48 637.166 591.865 620.615 591.865 600.193C591.865 600.028 591.85 599.847 591.85 599.681H591.865V580.6H591.85Z" fill="#BAFF00"/>
<path d="M528.481 617.829C563.487 617.829 591.865 601.276 591.865 580.856C591.865 560.437 563.487 543.884 528.481 543.884C493.474 543.884 465.096 560.437 465.096 580.856C465.096 601.276 493.474 617.829 528.481 617.829Z" fill="#BAFF00"/>
<path d="M528.481 617.678C493.856 617.678 465.742 601.488 465.126 581.368C465.126 581.594 465.096 581.805 465.096 582.031C465.096 602.452 493.466 619.003 528.481 619.003C563.48 619.003 591.865 602.452 591.865 582.031C591.865 581.805 591.85 581.594 591.835 581.368C591.219 601.473 563.09 617.678 528.481 617.678Z" fill="#8ECA0A"/>
<path d="M587.491 560.977H469.456V577.136H469.471C469.471 577.302 469.456 577.453 469.456 577.618C469.456 596.639 495.886 612.045 528.481 612.045C561.075 612.045 587.506 596.639 587.506 577.618C587.506 577.453 587.491 577.302 587.491 577.136H587.506V560.977H587.491Z" fill="#7AAF0C"/>
<path d="M587.491 558.176H469.456V574.335H469.471C469.471 574.501 469.456 574.652 469.456 574.817C469.456 593.838 495.886 609.244 528.481 609.244C561.075 609.244 587.506 593.838 587.506 574.817C587.506 574.652 587.491 574.501 587.491 574.335H587.506V558.176H587.491Z" fill="#9DDA10"/>
<path d="M591.85 546.444H465.096V565.525C465.096 565.525 465.096 565.872 465.096 566.037C465.096 586.459 493.466 603.01 528.481 603.01C563.48 603.01 591.865 586.459 591.865 566.037C591.865 565.872 591.85 565.691 591.85 565.525H591.865V546.444H591.85Z" fill="#BAFF00"/>
<path d="M528.481 583.673C563.487 583.673 591.865 567.119 591.865 546.7C591.865 526.281 563.487 509.728 528.481 509.728C493.474 509.728 465.096 526.281 465.096 546.7C465.096 567.119 493.474 583.673 528.481 583.673Z" fill="#BAFF00"/>
<path d="M528.481 583.522C493.856 583.522 465.742 567.332 465.126 547.212C465.126 547.438 465.096 547.649 465.096 547.875C465.096 568.296 493.466 584.847 528.481 584.847C563.48 584.847 591.865 568.296 591.865 547.875C591.865 547.649 591.85 547.438 591.835 547.212C591.219 567.332 563.09 583.522 528.481 583.522Z" fill="#8ECA0A"/>
<path d="M587.491 526.821H469.456V542.98H469.471C469.471 543.146 469.456 543.297 469.456 543.462C469.456 562.483 495.886 577.889 528.481 577.889C561.075 577.889 587.506 562.483 587.506 543.462C587.506 543.297 587.491 543.146 587.491 542.98H587.506V526.821H587.491Z" fill="#7AAF0C"/>
<path d="M587.491 524.02H469.456V540.179H469.471C469.471 540.345 469.456 540.496 469.456 540.661C469.456 559.682 495.886 575.088 528.481 575.088C561.075 575.088 587.506 559.682 587.506 540.661C587.506 540.496 587.491 540.345 587.491 540.179H587.506V524.02H587.491Z" fill="#9DDA10"/>
<path d="M591.85 513.358H465.096V532.439C465.096 532.439 465.096 532.785 465.096 532.951C465.096 553.372 493.466 569.923 528.481 569.923C563.48 569.923 591.865 553.372 591.865 532.951C591.865 532.785 591.85 532.604 591.85 532.439H591.865V513.358H591.85Z" fill="#BAFF00"/>
<path d="M528.481 550.586C563.487 550.586 591.865 534.033 591.865 513.614C591.865 493.194 563.487 476.641 528.481 476.641C493.474 476.641 465.096 493.194 465.096 513.614C465.096 534.033 493.474 550.586 528.481 550.586Z" fill="#BAFF00"/>
<path d="M528.481 550.435C493.856 550.435 465.742 534.246 465.126 514.126C465.126 514.352 465.096 514.562 465.096 514.788C465.096 535.21 493.466 551.76 528.481 551.76C563.48 551.76 591.865 535.21 591.865 514.788C591.865 514.562 591.85 514.352 591.835 514.126C591.219 534.231 563.09 550.435 528.481 550.435Z" fill="#8BC60B"/>
<path d="M587.491 493.719H469.456V509.879H469.471C469.471 510.044 469.456 510.195 469.456 510.361C469.456 529.381 495.886 544.788 528.481 544.788C561.075 544.788 587.506 529.381 587.506 510.361C587.506 510.195 587.491 510.044 587.491 509.879H587.506V493.719H587.491Z" fill="#8BC60B"/>
<path d="M587.491 490.918H469.456V507.078H469.471C469.471 507.243 469.456 507.394 469.456 507.559C469.456 526.58 495.886 541.987 528.481 541.987C561.075 541.987 587.506 526.58 587.506 507.559C587.506 507.394 587.491 507.243 587.491 507.078H587.506V490.918H587.491Z" fill="#ADED0F"/>
<path d="M591.85 479.202H465.096V498.283C465.096 498.283 465.096 498.629 465.096 498.795C465.096 519.216 493.466 535.767 528.481 535.767C563.48 535.767 591.865 519.216 591.865 498.795C591.865 498.629 591.85 498.448 591.85 498.283H591.865V479.202H591.85Z" fill="#BAFF00"/>
<path d="M528.481 516.43C563.487 516.43 591.865 499.877 591.865 479.458C591.865 459.038 563.487 442.485 528.481 442.485C493.474 442.485 465.096 459.038 465.096 479.458C465.096 499.877 493.474 516.43 528.481 516.43Z" fill="url(#paint6_linear_0_345)"/>
<path d="M528.481 516.279C493.856 516.279 465.742 500.09 465.126 479.97C465.126 480.196 465.096 480.406 465.096 480.632C465.096 501.054 493.466 517.604 528.481 517.604C563.48 517.604 591.865 501.054 591.865 480.632C591.865 480.406 591.85 480.196 591.835 479.97C591.219 500.075 563.09 516.279 528.481 516.279Z" fill="url(#paint7_radial_0_345)"/>
<path opacity="0.05" d="M608.213 479.864L542.919 442.094C535.191 437.621 521.69 438.178 512.775 443.344L452.382 478.268C448.142 480.723 445.722 483.765 445.15 486.762H445V672.346H445.06C445.316 674.936 447 677.391 450.232 679.258L515.526 717.029C523.254 721.501 536.755 720.944 545.67 715.779L606.063 680.855C610.303 678.4 612.723 675.358 613.294 672.361H613.445V486.777H613.385C613.129 484.186 611.43 481.732 608.213 479.864Z" fill="#7AAF0C"/>
<path opacity="0.4" d="M508.23 571.73V641.277L469.065 618.551V549.004L508.23 571.73Z" fill="#949494"/>
<path d="M607.802 476.864L542.508 439.094C534.78 434.621 521.279 435.178 512.364 440.344L451.971 475.268C447.731 477.722 445.311 480.765 444.739 483.761H444.589V492.993C444.724 493.069 444.829 493.159 444.965 493.234L514.258 533.309C522.452 538.053 536.779 537.45 546.251 531.983L610.343 494.921C611.335 494.349 612.222 493.731 613.019 493.114V483.761H612.958C612.718 481.186 611.019 478.731 607.802 476.864Z" fill="#404040"/>
<path opacity="0.2" d="M618.743 458.629H616.969C616.067 457.47 614.819 456.401 613.211 455.467L543.917 415.392C535.709 410.648 521.396 411.251 511.924 416.718L447.833 453.78C445.322 455.241 443.413 456.898 442.105 458.629H440V482.861H440.06C440.331 485.617 442.12 488.207 445.548 490.195L514.841 530.27C523.05 535.014 537.362 534.411 546.834 528.944L610.925 491.882C615.421 489.277 617.992 486.054 618.593 482.861H618.758V458.629H618.743Z" fill="#BAFF00"/>
<path d="M514.257 507.348L444.964 467.274C436.755 462.53 437.792 454.247 447.264 448.765L511.355 411.703C520.827 406.221 535.155 405.633 543.349 410.377L612.642 450.452C620.851 455.196 619.813 463.479 610.342 468.961L546.25 506.023C536.779 511.505 522.451 512.092 514.257 507.348Z" fill="#BAFF00"/>
<path d="M610.328 467.53L546.236 504.593C536.765 510.074 522.437 510.662 514.243 505.918L444.95 465.843C441.657 463.946 439.883 461.461 439.507 458.825C438.996 462.244 440.77 465.572 444.95 467.982L514.243 508.056C522.452 512.8 536.765 512.198 546.236 506.731L610.328 469.668C615.996 466.385 618.612 462.108 618.07 458.178C617.589 461.476 614.988 464.834 610.328 467.53Z" fill="#979797"/>
<path d="M592.076 453.253V442.35H466.449V454.669H466.464C465.698 460.346 468.704 465.889 475.665 469.91L504.501 486.596C518.303 494.578 542.418 493.584 558.354 484.367L578.966 472.44C588.438 466.958 592.888 459.819 592.076 453.253Z" fill="#ADED0F"/>
<path d="M504.654 472.385L475.818 455.698C462.017 447.716 463.746 433.771 479.682 424.554L500.294 412.627C516.231 403.41 540.346 402.401 554.147 410.398L582.983 427.084C596.785 435.066 595.056 449.011 579.119 458.228L558.507 470.156C542.571 479.357 518.456 480.366 504.654 472.385Z" fill="#BAFF00"/>
<path d="M578.981 457.169L558.369 469.096C542.433 478.313 518.317 479.322 504.516 471.325L475.68 454.639C469.757 451.205 466.705 446.687 466.404 441.898C466.284 447.079 469.305 452.033 475.68 455.723L504.516 472.41C518.317 480.391 542.433 479.397 558.369 470.166L578.981 458.238C588.077 452.982 592.527 446.175 592.121 439.835C591.986 445.874 587.566 452.199 578.981 457.169Z" fill="#979797"/>
<path d="M557.543 456.867C542.027 465.843 516.785 465.798 501.164 456.762C485.543 447.726 485.468 433.133 500.983 424.157C516.499 415.181 541.742 415.227 557.362 424.263C572.983 433.284 573.058 447.892 557.543 456.867Z" fill="#B7CB80"/>
<path d="M500.983 437.787C516.498 428.811 541.741 428.856 557.362 437.892C562.158 440.663 565.465 443.961 567.33 447.455C571.554 439.534 568.247 430.543 557.362 424.248C541.741 415.212 516.498 415.167 500.983 424.142C490.218 430.362 486.971 439.293 491.196 447.184C493.03 443.75 496.277 440.512 500.983 437.787Z" fill="#ADED0F"/>
<path d="M559.798 434.865C551.499 430.106 537.772 434.112 531.232 437.395C530.736 436.281 529.759 433.254 532.42 430.859C535.397 428.178 539.757 427.019 538.193 424.474C536.028 420.92 526.782 418.45 519.4 422.757C511.207 427.531 518.243 435.483 523.971 439.293C522.016 439.579 516.784 440.106 512.665 438.555C508.019 436.808 505.99 434.293 501.585 435.181C495.466 436.416 491.241 441.747 498.728 446.04C507.027 450.799 520.753 446.793 527.293 443.509C527.789 444.624 528.767 447.651 526.106 450.046C523.129 452.726 518.769 453.886 520.332 456.431C522.497 459.985 531.743 462.455 539.125 458.148C547.319 453.374 540.283 445.422 534.555 441.612C536.509 441.326 541.741 440.799 545.861 442.35C550.521 444.097 552.551 446.612 556.941 445.723C563.06 444.503 567.285 439.172 559.798 434.865Z" fill="#555553"/>
<path d="M522.889 438.555C523.31 438.51 523.67 438.464 523.971 438.419C520.243 435.934 515.988 431.702 515.717 427.727C515.371 431.567 519.175 435.814 522.889 438.555Z" fill="white"/>
<path d="M527.85 445.708C527.955 444.398 527.564 443.238 527.293 442.636C520.738 445.919 507.027 449.94 498.728 445.166C496.127 443.675 494.97 442.064 494.774 440.528C494.549 442.305 495.616 444.262 498.728 446.055C507.027 450.814 520.753 446.808 527.293 443.525C527.489 443.976 527.759 444.775 527.85 445.708Z" fill="white"/>
<path d="M532.42 429.986C530.856 431.386 530.57 432.998 530.676 434.323C530.766 433.193 531.202 431.974 532.42 430.859C535.171 428.389 539.065 427.215 538.448 425.046C537.952 426.703 534.765 427.877 532.42 429.986Z" fill="white"/>
<path d="M556.941 444.85C552.536 445.738 550.506 443.208 545.86 441.476C541.741 439.94 536.509 440.467 534.555 440.738C534.916 440.979 535.276 441.22 535.637 441.491C538.043 441.235 542.358 441.04 545.876 442.35C550.536 444.097 552.566 446.612 556.956 445.723C560.955 444.925 564.112 442.365 563.766 439.504C563.421 442.003 560.519 444.127 556.941 444.85Z" fill="white"/>
<path d="M539.11 457.274C531.728 461.566 522.482 459.097 520.317 455.558C520.197 455.362 520.122 455.166 520.062 454.985C519.926 455.422 519.986 455.904 520.317 456.446C522.482 460 531.728 462.47 539.11 458.163C541.967 456.506 542.944 454.443 542.793 452.32C542.643 454.127 541.576 455.844 539.11 457.274Z" fill="white"/>
<path d="M515.716 428.525V432.32C515.506 434.76 516.979 437.335 519.024 439.609C521.129 439.639 522.978 439.443 523.97 439.293C520.212 436.808 515.927 432.531 515.716 428.525Z" fill="#616161"/>
<path d="M494.743 440.783H494.729V441.009C494.729 440.934 494.743 440.859 494.743 440.783Z" fill="#8BC60B"/>
<path d="M532.42 435.452C535.066 433.073 538.764 431.898 538.494 429.88V425.723C538.238 427.485 534.87 428.675 532.42 430.874C529.909 433.133 530.631 435.934 531.142 437.184C531.413 436.597 531.803 435.994 532.42 435.452Z" fill="#616161"/>
<path d="M563.766 439.639C564.007 442.455 560.88 444.94 556.941 445.738C552.536 446.627 550.506 444.097 545.86 442.365C541.741 440.829 536.509 441.356 534.555 441.627C536.239 442.741 538.028 444.232 539.516 445.889C541.561 445.919 543.846 446.175 545.86 446.928C550.521 448.675 552.551 451.19 556.941 450.301C560.744 449.533 563.811 447.184 563.796 444.473L563.827 444.458V439.594L563.766 439.639Z" fill="#616161"/>
<path d="M527.383 448.328C528.315 446.371 527.669 444.368 527.293 443.509C520.738 446.792 507.027 450.813 498.728 446.039C495.946 444.443 494.789 442.696 494.729 441.07V445.557C494.729 445.588 494.729 445.618 494.729 445.633V445.693H494.744C494.819 447.289 495.976 449.021 498.728 450.587C507.027 455.346 520.753 451.34 527.293 448.057C527.323 448.163 527.353 448.253 527.383 448.328Z" fill="#616161"/>
<path d="M539.11 462.726C541.531 461.325 542.598 459.623 542.778 457.861H542.839V452.545H542.808C542.869 454.593 541.861 456.551 539.11 458.148C531.728 462.44 522.482 459.97 520.317 456.431C520.107 456.099 520.016 455.783 520.001 455.482H519.986V459.804H520.016C519.971 460.181 520.062 460.572 520.317 461.009C520.813 461.837 521.715 462.59 522.858 463.223C528.15 463.735 533.547 463.629 538.764 462.907C538.884 462.846 539.005 462.801 539.11 462.726Z" fill="#616161"/>
<path d="M535.096 443.841C531.894 445.693 526.692 445.678 523.459 443.826C520.227 441.973 520.227 438.946 523.429 437.094C526.632 435.241 531.833 435.256 535.066 437.109C538.283 438.976 538.298 441.988 535.096 443.841Z" fill="#BAFF00"/>
<path d="M535.096 442.952C531.894 444.804 526.692 444.789 523.459 442.937C522.031 442.109 521.279 441.07 521.099 440C520.873 441.371 521.64 442.771 523.459 443.826C526.677 445.693 531.894 445.693 535.096 443.841C536.885 442.801 537.637 441.416 537.411 440.061C537.246 441.115 536.494 442.139 535.096 442.952Z" fill="white"/>
<path opacity="0.5" d="M569.939 443.818V326H491.063V443.567C490.452 448.863 494.27 454.273 502.621 458.327C518.116 465.857 543.155 465.895 558.545 458.415C566.777 454.398 570.535 449.064 569.939 443.818Z" fill="url(#paint8_linear_0_345)"/>
<path opacity="0.15" d="M537 705C550.807 705 562 667.84 562 622C562 576.16 550.807 539 537 539C523.193 539 512 576.16 512 622C512 667.84 523.193 705 537 705Z" fill="#BAFF00"/>
<path opacity="0.01" d="M529.622 749.499C536.04 749.499 541.243 738.866 541.243 725.75C541.243 712.633 536.04 702 529.622 702C523.203 702 518 712.633 518 725.75C518 738.866 523.203 749.499 529.622 749.499Z" fill="#BAFF00"/>
<path d="M565.736 720.146V741.365L558.113 736.787V715.568L565.736 720.146Z" fill="#6A6A6A"/>
<path d="M565.721 720.146V741.365L606.359 717.782V696.577L565.721 720.146Z" fill="#717171"/>
<path d="M602.675 715.071V702.993L569.404 722.269V734.363L602.675 715.071Z" fill="#575757"/>
<path d="M606.359 696.577L565.721 720.146L558.113 715.568L598.781 691.984L606.359 696.577Z" fill="#616161"/>
<path d="M583.064 719.995C583.064 720.763 583.335 721.306 583.756 721.562C583.771 721.577 584.538 722.013 584.553 722.028C585.004 722.284 584.718 721.712 585.395 721.321C586.763 720.538 587.86 718.625 587.86 717.059C587.86 716.291 588.582 716.276 588.131 716.02C588.116 716.02 587.259 715.553 587.244 715.538C586.793 715.297 586.192 715.342 585.515 715.733C584.177 716.517 583.064 718.429 583.064 719.995Z" fill="#7AAF0C"/>
<path d="M583.922 720.477C583.922 722.043 585.019 722.676 586.387 721.893C587.756 721.11 588.853 719.197 588.853 717.631C588.853 716.065 587.756 715.432 586.387 716.215C585.034 716.998 583.922 718.911 583.922 720.477Z" fill="#8BC60B"/>
<path d="M584.522 720.372C584.522 721.034 584.748 721.486 585.124 721.712C585.139 721.712 586.312 722.42 586.312 722.42C586.687 722.631 586.447 722.149 587.033 721.818C588.206 721.14 589.153 719.498 589.153 718.158C589.153 717.495 589.769 717.48 589.394 717.27C589.379 717.27 588.131 716.547 588.131 716.547C587.755 716.336 587.229 716.381 586.657 716.712C585.47 717.375 584.522 719.016 584.522 720.372Z" fill="#ADED0F"/>
<path d="M585.771 721.095C585.771 722.435 586.718 722.977 587.89 722.3C589.063 721.622 590.01 719.98 590.01 718.64C590.01 717.3 589.063 716.758 587.89 717.435C586.718 718.113 585.771 719.754 585.771 721.095Z" fill="#BAFF00"/>
<path d="M586.282 716.155C586.928 715.779 587.53 715.733 587.966 715.944C587.56 715.824 587.049 715.914 586.493 716.23C585.124 717.013 584.027 718.926 584.027 720.492C584.027 721.306 584.328 721.863 584.809 722.104C584.207 721.938 583.816 721.336 583.816 720.402C583.816 718.851 584.914 716.938 586.282 716.155Z" fill="#BAFF00"/>
<path d="M587.8 717.375C588.356 717.044 588.882 716.999 589.258 717.194C588.897 717.089 588.461 717.164 587.98 717.45C586.808 718.128 585.845 719.785 585.845 721.125C585.845 721.833 586.101 722.315 586.522 722.526C585.996 722.375 585.665 721.863 585.665 721.065C585.665 719.709 586.627 718.053 587.8 717.375Z" fill="#8BC60B"/>
<path d="M586.778 720.748C586.778 721.531 587.32 721.833 587.996 721.441C588.673 721.049 589.214 720.101 589.214 719.333C589.214 718.549 588.673 718.248 587.996 718.64C587.32 719.016 586.778 719.965 586.778 720.748Z" fill="#7AAF0C"/>
<path d="M574.064 724.995C574.064 725.763 574.335 726.306 574.756 726.562C574.771 726.577 575.538 727.013 575.553 727.028C576.004 727.284 575.718 726.712 576.395 726.321C577.763 725.537 578.86 723.625 578.86 722.059C578.86 721.291 579.582 721.275 579.131 721.019C579.116 721.019 578.259 720.553 578.244 720.538C577.793 720.297 577.192 720.342 576.515 720.733C575.177 721.516 574.064 723.429 574.064 724.995Z" fill="#7AAF0C"/>
<path d="M574.922 725.477C574.922 727.043 576.019 727.676 577.387 726.893C578.756 726.11 579.853 724.197 579.853 722.631C579.853 721.065 578.756 720.432 577.387 721.215C576.034 721.998 574.922 723.911 574.922 725.477Z" fill="#8BC60B"/>
<path d="M575.522 725.372C575.522 726.034 575.748 726.486 576.124 726.712C576.139 726.712 577.312 727.42 577.312 727.42C577.687 727.631 577.447 727.149 578.033 726.818C579.206 726.14 580.153 724.498 580.153 723.158C580.153 722.495 580.769 722.48 580.394 722.269C580.379 722.269 579.131 721.547 579.131 721.547C578.755 721.336 578.229 721.381 577.657 721.712C576.47 722.375 575.522 724.016 575.522 725.372Z" fill="#ADED0F"/>
<path d="M576.771 726.095C576.771 727.435 577.718 727.977 578.89 727.299C580.063 726.622 581.01 724.98 581.01 723.64C581.01 722.3 580.063 721.757 578.89 722.435C577.718 723.113 576.771 724.754 576.771 726.095Z" fill="#BAFF00"/>
<path d="M577.282 721.155C577.928 720.779 578.53 720.733 578.966 720.944C578.56 720.824 578.049 720.914 577.493 721.23C576.124 722.013 575.027 723.926 575.027 725.492C575.027 726.306 575.328 726.863 575.809 727.104C575.207 726.938 574.816 726.336 574.816 725.402C574.816 723.851 575.914 721.938 577.282 721.155Z" fill="#BAFF00"/>
<path d="M578.8 722.375C579.356 722.044 579.882 721.998 580.258 722.194C579.897 722.089 579.461 722.164 578.98 722.45C577.808 723.128 576.845 724.785 576.845 726.125C576.845 726.833 577.101 727.315 577.522 727.525C576.996 727.375 576.665 726.863 576.665 726.065C576.665 724.709 577.627 723.053 578.8 722.375Z" fill="#8BC60B"/>
<path d="M577.778 725.748C577.778 726.531 578.32 726.833 578.996 726.441C579.673 726.049 580.214 725.101 580.214 724.333C580.214 723.549 579.673 723.248 578.996 723.64C578.32 724.016 577.778 724.965 577.778 725.748Z" fill="#7AAF0C"/>
<path d="M592.064 714.995C592.064 715.763 592.335 716.306 592.756 716.562C592.771 716.577 593.538 717.013 593.553 717.028C594.004 717.284 593.718 716.712 594.395 716.321C595.763 715.538 596.86 713.625 596.86 712.059C596.86 711.291 597.582 711.276 597.131 711.02C597.116 711.02 596.259 710.553 596.244 710.538C595.793 710.297 595.192 710.342 594.515 710.733C593.177 711.517 592.064 713.429 592.064 714.995Z" fill="#7AAF0C"/>
<path d="M592.922 715.477C592.922 717.043 594.019 717.676 595.387 716.893C596.756 716.11 597.853 714.197 597.853 712.631C597.853 711.065 596.756 710.432 595.387 711.215C594.034 711.998 592.922 713.911 592.922 715.477Z" fill="#8BC60B"/>
<path d="M593.522 715.372C593.522 716.034 593.748 716.486 594.124 716.712C594.139 716.712 595.312 717.42 595.312 717.42C595.687 717.631 595.447 717.149 596.033 716.818C597.206 716.14 598.153 714.498 598.153 713.158C598.153 712.495 598.769 712.48 598.394 712.27C598.379 712.27 597.131 711.547 597.131 711.547C596.755 711.336 596.229 711.381 595.657 711.712C594.47 712.375 593.522 714.016 593.522 715.372Z" fill="#ADED0F"/>
<path d="M594.771 716.095C594.771 717.435 595.718 717.977 596.89 717.3C598.063 716.622 599.01 714.98 599.01 713.64C599.01 712.3 598.063 711.758 596.89 712.435C595.718 713.113 594.771 714.754 594.771 716.095Z" fill="#BAFF00"/>
<path d="M595.282 711.155C595.928 710.779 596.53 710.733 596.966 710.944C596.56 710.824 596.049 710.914 595.493 711.23C594.124 712.013 593.027 713.926 593.027 715.492C593.027 716.306 593.328 716.863 593.809 717.104C593.207 716.938 592.816 716.336 592.816 715.402C592.816 713.851 593.914 711.938 595.282 711.155Z" fill="#BAFF00"/>
<path d="M596.8 712.375C597.356 712.044 597.882 711.999 598.258 712.194C597.897 712.089 597.461 712.164 596.98 712.45C595.808 713.128 594.845 714.785 594.845 716.125C594.845 716.833 595.101 717.315 595.522 717.526C594.996 717.375 594.665 716.863 594.665 716.065C594.665 714.709 595.627 713.053 596.8 712.375Z" fill="#8BC60B"/>
<path d="M595.778 715.748C595.778 716.531 596.32 716.833 596.996 716.441C597.673 716.049 598.214 715.101 598.214 714.333C598.214 713.549 597.673 713.248 596.996 713.64C596.32 714.016 595.778 714.965 595.778 715.748Z" fill="#7AAF0C"/>
<path d="M499.539 576.564V646.126L460.375 623.386V553.854L499.539 576.564Z" fill="#A0DE0E"/>
<path d="M463.923 620.78V560.028L495.991 578.612V639.364L463.923 620.78Z" fill="#555553"/>
<path d="M466.825 590.073V565.073L493.09 580.284V605.299L466.825 590.073Z" fill="#BAFF00"/>
<path d="M474.447 606.503L466.885 602.121V597.995L474.447 602.377V606.503Z" fill="#BAFF00"/>
<path d="M483.693 611.85L476.131 607.467V603.341L483.693 607.723V611.85Z" fill="#BAFF00"/>
<path d="M492.924 617.196L485.377 612.814V608.687L492.924 613.07V617.196Z" fill="#BAFF00"/>
<path d="M474.447 613.642L466.885 609.275V605.133L474.447 609.516V613.642Z" fill="#BAFF00"/>
<path d="M483.693 618.988L476.131 614.621V610.479L483.693 614.862V618.988Z" fill="#BAFF00"/>
<path d="M492.924 624.335L485.377 619.967V615.826L492.924 620.208V624.335Z" fill="#BAFF00"/>
<path d="M474.447 620.615L466.885 616.232V612.106L474.447 616.473V620.615Z" fill="#BAFF00"/>
<path d="M483.693 625.961L476.131 621.578V617.452L483.693 621.819V625.961Z" fill="#BAFF00"/>
<path d="M492.924 631.307L485.377 626.925V622.798L492.924 627.166V631.307Z" fill="#BAFF00"/>
<path d="M754.778 655.072L753.665 653.114L838.263 604.606L839.391 606.564L754.778 655.072Z" fill="#C0FB10"/>
<path d="M688.07 616.548L686.942 614.591L771.556 566.083L772.668 568.04L688.07 616.548Z" fill="url(#paint9_linear_0_345)"/>
<path d="M864.379 671.352L815.442 643.656L761.228 674.74L760.101 672.782L815.442 641.051L864.379 668.746L907.061 644.274L908.189 646.232L864.379 671.352Z" fill="#C0FB10"/>
<path d="M727.625 746.652C757.799 746.652 782.26 736.814 782.26 724.679C782.26 712.544 757.799 702.707 727.625 702.707C697.451 702.707 672.99 712.544 672.99 724.679C672.99 736.814 697.451 746.652 727.625 746.652Z" fill="url(#paint10_radial_0_345)"/>
<g opacity="0.8">
<path d="M798.332 616.202C777.104 604.139 756.341 584.727 738.946 560.676L738.706 560.54C721.311 564.456 700.549 559.863 679.32 547.363L678.508 546.881L650.98 562.634L663.85 571.128C667.879 624.952 688.852 669.153 722.619 721.471L723.446 721.953C729.52 719.574 720.319 725.071 725.536 722.119C725.761 721.998 756.627 704.845 756.852 704.71C780.261 691.246 794.724 670.599 798.001 630.645L799.144 616.654L798.332 616.202Z" fill="#9DDA11"/>
<path d="M798.332 616.202C777.103 604.139 756.341 584.727 738.946 560.676L738.706 560.54C721.311 564.456 700.548 559.863 679.32 547.363L678.508 546.881L675.456 548.764L676.268 549.246C697.496 561.745 718.259 566.339 735.654 562.423L735.894 562.559C753.289 586.609 774.051 606.007 795.28 618.085L796.092 618.551L794.949 632.542C791.882 669.996 778.983 690.493 758.085 703.987C780.772 690.508 794.784 669.891 798.001 630.66L799.144 616.669L798.332 616.202Z" fill="#ADED10"/>
<path d="M798.332 616.202C777.104 604.139 756.341 584.727 738.947 560.676L738.706 560.541C738.586 560.571 738.481 560.586 738.36 560.616L679.351 594.697L766.835 634.892L799.144 616.669L798.332 616.202Z" fill="#9DDA11"/>
<path d="M679.11 563.673L678.538 550.51C677.772 550.089 677.02 549.667 676.253 549.215L675.441 548.733L676.584 564.049C678.674 591.971 685.334 617.301 695.963 642.512C686.176 617.045 680.328 591.579 679.11 563.673Z" fill="#9DDA11"/>
</g>
<g opacity="0.3">
<path d="M735.157 482.53C708.17 466.958 674.479 486.461 674.479 517.665V592.709H674.494C674.494 592.739 674.479 592.769 674.479 592.799C674.479 597.076 680.432 600.555 687.769 600.555C695.106 600.555 701.059 597.091 701.059 592.799C701.059 592.754 701.044 592.694 701.044 592.648H701.179V523.327C701.179 510.12 715.447 501.852 726.873 508.433C740.148 516.068 748.327 530.24 748.327 545.586V635.298H748.463C748.613 639.5 754.491 642.888 761.738 642.888C769.029 642.888 774.953 639.455 775.013 635.208V551.64C775.043 523.117 759.828 496.762 735.157 482.53Z" fill="#BAFF01"/>
<path d="M682.717 596.368L682.702 524.065C682.702 503.192 699.661 486.205 720.499 486.205C727.084 486.205 733.398 487.921 739.277 491.31C743.08 493.509 746.659 496.009 749.981 498.78C745.215 493.96 739.788 489.744 733.789 486.28C727.911 482.891 721.596 481.175 715.011 481.175C694.174 481.175 677.215 498.162 677.215 519.035V591.338H677.23V594.079C677.23 594.139 677.23 594.2 677.23 594.26C677.305 595.871 679.455 597.588 682.717 598.507V596.368Z" fill="#C0F90F"/>
<path d="M756.611 639.846H756.566V552.905C756.566 538.688 749.891 525.345 738.811 516.791C746.553 525.119 751.079 536.204 751.079 547.875V634.816H751.124L751.214 637.482C751.274 639.078 753.409 640.81 756.671 641.744L756.611 639.846Z" fill="#BAFF01"/>
<path d="M707.389 495.783C695.391 495.783 685.649 505.557 685.649 517.559V594.561L685.514 599.32C685.409 599.727 692.956 599.109 693.121 598.401L693.256 593.642V516.641C693.256 506.852 699.736 498.554 708.622 495.813C708.216 495.798 707.81 495.783 707.389 495.783Z" fill="#C0F90F"/>
<path d="M730.587 489.006C724.994 485.783 718.98 484.141 712.726 484.141C710.125 484.141 707.494 484.458 704.908 485.06C704.983 485.06 705.043 485.06 705.119 485.06C711.373 485.06 717.387 486.702 722.979 489.924C746.162 503.298 760.565 528.267 760.565 555.074V641.864V642.226C760.565 642.587 768.173 641.94 768.173 641.307V640.946V554.155C768.188 527.363 753.785 502.394 730.587 489.006Z" fill="#BAFF01"/>
<path d="M694.324 525.466V598.22C697.331 597.287 699.286 595.66 699.376 594.124V594.079L699.511 591.127V524.547C699.511 515.647 705.359 508.102 713.403 505.526C702.804 505.993 694.324 514.758 694.324 525.466Z" fill="#C0F90F"/>
<g opacity="0.5">
<path d="M735.503 486.43C732.722 484.834 729.85 483.614 726.889 482.771C752.176 497.936 767.842 525.496 767.842 555.089V640.855C771.465 639.982 773.886 638.129 773.916 636.413V636.066V553.026C773.916 525.616 759.197 500.105 735.503 486.43Z" fill="#BAFF01"/>
</g>
</g>
<path d="M775.69 629.078C754.462 617.015 733.699 597.603 716.305 573.552L716.064 573.417C698.669 577.332 677.907 572.739 656.678 560.239L655.867 559.757L650.98 562.634L663.85 571.128C667.879 624.952 688.852 669.153 722.619 721.471L723.446 721.953C729.52 719.574 720.319 725.071 725.536 722.119C725.761 721.998 733.985 717.721 734.211 717.586C757.619 704.122 772.082 683.475 775.36 643.521L776.502 629.53L775.69 629.078Z" fill="#ADED10"/>
<path d="M775.691 629.078C754.462 617.015 733.7 597.603 716.305 573.552L716.064 573.417C715.944 573.447 715.839 573.462 715.719 573.492L679.351 594.696L766.835 634.892L776.518 629.545L775.691 629.078Z" fill="#9DDA11"/>
<path d="M772.187 631.066C750.959 619.003 730.196 599.591 712.801 575.54L712.561 575.405C695.166 579.32 674.404 574.727 653.175 562.227L652.363 561.745L653.506 577.061C657.535 630.886 678.508 675.087 712.275 727.405L713.102 727.887C746.854 714.604 767.842 694.68 771.871 645.509L773.014 631.518L772.187 631.066Z" fill="#7AAF0D"/>
<path d="M770.624 631.684C749.395 619.621 728.633 600.208 711.238 576.158L710.997 576.022C693.603 579.938 672.84 575.344 651.612 562.845L650.8 562.363L651.942 577.679C655.972 631.518 676.944 675.704 710.712 728.022L711.539 728.504C745.291 715.221 766.279 695.297 770.308 646.126L771.45 632.136L770.624 631.684Z" fill="url(#paint11_linear_0_345)"/>
<path opacity="0.9" d="M770.624 631.684C749.395 619.621 728.633 600.208 711.238 576.158L710.997 576.022C693.603 579.938 672.84 575.344 651.612 562.845L650.8 562.363L651.942 577.679C655.972 631.518 676.944 675.704 710.712 728.022L711.539 728.504C745.291 715.221 766.279 695.297 770.308 646.126L771.45 632.136L770.624 631.684Z" fill="#BAFF01"/>
<path d="M770.624 631.684C770.263 631.488 769.917 631.262 769.557 631.051L768.414 644.906C764.4 693.851 743.592 713.821 710.096 727.104C710.291 727.42 710.487 727.721 710.682 728.022L711.509 728.504C745.261 715.221 766.249 695.297 770.278 646.126L771.421 632.136L770.624 631.684Z" fill="#9DDA11"/>
<path opacity="0.87" d="M713.689 720.523C683.35 672.963 662.452 630.012 658.498 577.212L658.242 573.869C672.089 580.51 685.785 583.989 698.384 583.989C701.752 583.989 705.059 583.748 708.276 583.251C725.025 605.645 744.359 623.702 764.55 635.765L763.738 645.599C760.025 690.794 741.908 708.475 713.689 720.523Z" fill="#404040"/>
<path opacity="0.2" d="M662.737 576.414L662.692 575.902C661.203 575.254 659.715 574.592 658.227 573.869L658.482 577.212C662.436 630.012 683.334 672.963 713.673 720.523C714.936 719.98 716.169 719.438 717.387 718.866C687.348 671.638 666.676 628.898 662.737 576.414Z" fill="url(#paint12_radial_0_345)"/>
<path d="M722.754 640.599C722.754 634.154 718.199 626.277 712.591 623.039C706.983 619.786 702.428 622.392 702.428 628.837C702.428 633.19 704.502 638.175 707.569 641.955V662.391L717.612 668.204V647.768C720.679 647.542 722.754 644.952 722.754 640.599Z" fill="#7A9232"/>
<path d="M712.335 660.268V639.831C709.268 636.051 707.194 631.066 707.194 626.714C707.194 624.591 707.69 622.904 708.547 621.684C704.953 621.398 702.428 624.063 702.428 628.868C702.428 633.22 704.502 638.205 707.569 641.985V662.421L717.612 668.234V663.34L712.335 660.268Z" fill="url(#paint13_linear_0_345)"/>
<path d="M712.335 660.268V639.831C709.268 636.051 707.194 631.066 707.194 626.714C707.194 624.591 707.69 622.904 708.547 621.684C704.953 621.398 702.428 624.063 702.428 628.868C702.428 633.22 704.502 638.205 707.569 641.985V662.421L717.612 668.234V663.34L712.335 660.268Z" fill="#9CB74D"/>
<path d="M705.389 561.565C705.389 566.549 698.473 570.586 689.934 570.586C681.394 570.586 674.479 566.549 674.479 561.565C674.479 556.58 681.394 552.544 689.934 552.544C698.473 552.559 705.389 556.595 705.389 561.565Z" fill="#BAFF01"/>
<path d="M778.502 603.913C778.502 608.747 771.781 612.678 763.482 612.678C755.183 612.678 748.463 608.762 748.463 603.913C748.463 599.079 755.183 595.148 763.482 595.148C771.766 595.148 778.502 599.064 778.502 603.913Z" fill="#BAFF01"/>
<path d="M735.157 482.379C708.17 466.807 674.479 486.31 674.479 517.514V561.489H674.494C674.494 561.519 674.479 561.549 674.479 561.58C674.479 565.857 680.432 569.336 687.769 569.336C695.106 569.336 701.059 565.872 701.059 561.58C701.059 561.534 701.044 561.474 701.044 561.429H701.179V523.192C701.179 509.984 715.447 501.716 726.873 508.297C740.148 515.933 748.327 530.104 748.327 545.45V604.079H748.463C748.613 608.281 754.491 611.669 761.738 611.669C769.029 611.669 774.953 608.235 775.013 603.988V551.504C775.043 522.966 759.828 496.611 735.157 482.379Z" fill="#8BC60C"/>
<path d="M682.717 565.134L682.702 523.915C682.702 503.042 699.661 486.054 720.499 486.054C727.084 486.054 733.398 487.771 739.277 491.159C743.08 493.358 746.659 495.858 749.981 498.629C745.215 493.81 739.788 489.593 733.789 486.129C727.911 482.741 721.596 481.024 715.011 481.024C694.174 481.024 677.215 498.012 677.215 518.885V560.104H677.23V562.845C677.23 562.905 677.23 562.965 677.23 563.025C677.305 564.637 679.455 566.354 682.717 567.272V565.134Z" fill="#8BC60C"/>
<path d="M756.611 608.627H756.566V552.754C756.566 538.538 749.891 525.195 738.811 516.641C746.553 524.969 751.079 536.053 751.079 547.724V603.597H751.124L751.214 606.262C751.274 607.859 753.409 609.591 756.671 610.524L756.611 608.627Z" fill="#8BC60C"/>
<path d="M707.389 495.617C695.391 495.617 685.649 505.391 685.649 517.394V563.312L685.514 568.071C685.409 568.477 692.956 567.86 693.121 567.152L693.256 562.393V516.475C693.256 506.686 699.736 498.388 708.622 495.647C708.216 495.647 707.81 495.617 707.389 495.617Z" fill="#8BC60C"/>
<path d="M730.587 488.855C724.994 485.632 718.98 483.991 712.726 483.991C710.125 483.991 707.494 484.307 704.908 484.909C704.983 484.909 705.043 484.909 705.119 484.909C711.373 484.909 717.387 486.551 722.979 489.774C746.162 503.147 760.565 528.116 760.565 554.923V610.645V611.006C760.565 611.368 768.173 610.72 768.173 610.088V609.726V554.005C768.188 527.198 753.785 502.243 730.587 488.855Z" fill="#8BC60C"/>
<path d="M694.324 525.315V566.986C697.331 566.052 699.286 564.426 699.376 562.89V562.845L699.511 559.893V524.382C699.511 515.481 705.359 507.936 713.403 505.361C702.804 505.843 694.324 514.608 694.324 525.315Z" fill="#8BC60C"/>
<g opacity="0.5">
<path d="M735.503 486.28C732.722 484.683 729.85 483.463 726.889 482.62C752.176 497.786 767.842 525.345 767.842 554.938V609.621C771.465 608.747 773.886 606.895 773.916 605.178V604.832V552.86C773.916 525.451 759.197 499.954 735.503 486.28Z" fill="#8BC60C"/>
</g>
<path d="M720.438 486.204C727.339 486.204 733.969 487.891 740.194 491.174C737.863 489.427 735.428 487.816 732.872 486.34C727.279 483.117 721.265 481.476 715.011 481.476C697.722 481.476 679.049 495.255 679.049 517.499V517.604C684.401 497.951 702.999 486.204 720.438 486.204Z" fill="#8BC60C"/>
<path d="M752.913 546.535C754.115 536.008 752.822 521.053 740.434 507.951C728.858 495.722 714.921 492.545 707.584 504.276C710.771 502.454 714.44 501.4 718.364 501.4C722.107 501.4 725.851 502.409 729.158 504.322C743.817 512.755 752.913 528.508 752.913 545.435V546.535Z" fill="#8BC60C"/>
<path d="M661.986 661.999V692.887L624.941 713.791H596.752V715.794H625.453L663.986 694.062V663.159L713.433 634.244V631.925L661.986 661.999Z" fill="#404040"/>
<path d="M713.377 649L673.115 672.539V703.412L636.07 724.33H579V726.333H636.597L675.115 704.586V673.683L713.377 651.319V649Z" fill="#404040"/>
<path d="M630.534 719.077H587.896V721.08H631.06L669.578 699.333V668.43L713.433 642.783V640.464L667.579 667.27V698.158L630.534 719.077Z" fill="#404040"/>
<defs>
<filter id="filter0_f_0_345" x="0.5" y="0.00317383" width="1058.22" height="1099" filterUnits="userSpaceOnUse" color-interpolation-filters="sRGB">
<feFlood flood-opacity="0" result="BackgroundImageFix"/>
<feBlend mode="normal" in="SourceGraphic" in2="BackgroundImageFix" result="shape"/>
<feGaussianBlur stdDeviation="150" result="effect1_foregroundBlur_0_345"/>
</filter>
<linearGradient id="paint0_linear_0_345" x1="809.726" y1="401.978" x2="822.862" y2="520.571" gradientUnits="userSpaceOnUse">
<stop stop-color="#000101" stop-opacity="0"/>
<stop offset="0.302193" stop-color="#A8E600"/>
<stop offset="0.48189" stop-color="#A8E600"/>
<stop offset="1" stop-color="#00B2FE"/>
</linearGradient>
<linearGradient id="paint1_linear_0_345" x1="877.699" y1="439.974" x2="890.833" y2="558.567" gradientUnits="userSpaceOnUse">
<stop stop-color="#000101" stop-opacity="0"/>
<stop offset="0.302193" stop-color="#A8E600"/>
<stop offset="0.48189" stop-color="#A8E600"/>
<stop offset="1" stop-color="#00B2FE"/>
</linearGradient>
<linearGradient id="paint2_linear_0_345" x1="946.942" y1="479.978" x2="959.538" y2="598.689" gradientUnits="userSpaceOnUse">
<stop stop-color="#000101" stop-opacity="0"/>
<stop offset="0.302193" stop-color="#A8E600"/>
<stop offset="0.48189" stop-color="#A8E600"/>
<stop offset="1" stop-color="#00B2FE"/>
</linearGradient>
<linearGradient id="paint3_linear_0_345" x1="868.837" y1="606.935" x2="892.158" y2="601.716" gradientUnits="userSpaceOnUse">
<stop stop-color="#25054D"/>
<stop offset="1" stop-color="#45108A"/>
</linearGradient>
<linearGradient id="paint4_linear_0_345" x1="890.136" y1="626.263" x2="913.457" y2="621.044" gradientUnits="userSpaceOnUse">
<stop stop-color="#25054D"/>
<stop offset="1" stop-color="#45108A"/>
</linearGradient>
<radialGradient id="paint5_radial_0_345" cx="0" cy="0" r="1" gradientUnits="userSpaceOnUse" gradientTransform="translate(529.608 549.502) rotate(90) scale(296.498 272.267)">
<stop stop-color="#7CF723"/>
<stop offset="1" stop-color="#7CF723" stop-opacity="0"/>
</radialGradient>
<linearGradient id="paint6_linear_0_345" x1="602.899" y1="399.516" x2="502.304" y2="507.195" gradientUnits="userSpaceOnUse">
<stop stop-color="#9F79C8"/>
<stop offset="0.1367" stop-color="#A580CB"/>
<stop offset="0.3288" stop-color="#B492D3"/>
<stop offset="0.5529" stop-color="#CDB0E1"/>
<stop offset="0.5808" stop-color="#D1B4E3"/>
<stop offset="0.7644" stop-color="#DBC4E9"/>
<stop offset="1" stop-color="#EBDEF3"/>
</linearGradient>
<radialGradient id="paint7_radial_0_345" cx="0" cy="0" r="1" gradientUnits="userSpaceOnUse" gradientTransform="translate(508.133 511.323) scale(46.7419 46.8216)">
<stop stop-color="white"/>
<stop offset="1"/>
</radialGradient>
<linearGradient id="paint8_linear_0_345" x1="587.083" y1="331.763" x2="619.372" y2="678.503" gradientUnits="userSpaceOnUse">
<stop stop-color="#000101" stop-opacity="0"/>
<stop offset="0.302193" stop-color="#A8E600"/>
<stop offset="0.48189" stop-color="#A8E600"/>
<stop offset="1" stop-color="#00B2FE"/>
</linearGradient>
<linearGradient id="paint9_linear_0_345" x1="686.946" y1="591.313" x2="772.67" y2="591.313" gradientUnits="userSpaceOnUse">
<stop offset="0.0152" stop-color="#FFA98C"/>
<stop offset="0.0748" stop-color="#C46AA7"/>
<stop offset="0.1334" stop-color="#9033C0"/>
<stop offset="0.1616" stop-color="#7C1DC9"/>
<stop offset="0.3203" stop-color="#6E41D2"/>
<stop offset="0.67" stop-color="#4C9BE8"/>
<stop offset="1" stop-color="#2AF6FF"/>
</linearGradient>
<radialGradient id="paint10_radial_0_345" cx="0" cy="0" r="1" gradientUnits="userSpaceOnUse" gradientTransform="translate(716 718.5) rotate(-83.6598) scale(31.6939 31.9787)">
<stop stop-color="#BAFF01"/>
<stop offset="0.9378" stop-color="#131511" stop-opacity="0"/>
</radialGradient>
<linearGradient id="paint11_linear_0_345" x1="686.924" y1="566.435" x2="764.622" y2="741.312" gradientUnits="userSpaceOnUse">
<stop stop-color="#FFF3A7"/>
<stop offset="0.1141" stop-color="#FDE8A0"/>
<stop offset="0.4128" stop-color="#F8D092"/>
<stop offset="0.6889" stop-color="#F5C18A"/>
<stop offset="0.9192" stop-color="#F4BC87"/>
</linearGradient>
<radialGradient id="paint12_radial_0_345" cx="0" cy="0" r="1" gradientUnits="userSpaceOnUse" gradientTransform="translate(679.13 670.426) scale(55.8278 92.9439)">
<stop offset="0.1364" stop-color="#25166D"/>
<stop offset="0.2167" stop-color="#2C1D72"/>
<stop offset="0.3354" stop-color="#3E317E"/>
<stop offset="0.4779" stop-color="#5D5293"/>
<stop offset="0.6389" stop-color="#887FAF"/>
<stop offset="0.8154" stop-color="#BEBAD4"/>
<stop offset="1" stop-color="white"/>
</radialGradient>
<linearGradient id="paint13_linear_0_345" x1="694.258" y1="618.607" x2="719.321" y2="661.022" gradientUnits="userSpaceOnUse">
<stop offset="0.0556" stop-color="#F7D590"/>
<stop offset="0.1727" stop-color="#FBE99B"/>
<stop offset="0.2985" stop-color="#FDF6A3"/>
<stop offset="0.4091" stop-color="#FEFBA6"/>
<stop offset="0.5546" stop-color="#F9E495"/>
<stop offset="0.6928" stop-color="#F5D58B"/>
<stop offset="0.8081" stop-color="#F4D087"/>
</linearGradient>
</defs>
</svg>
